<?xml version="1.0" encoding="UTF-8" standalone="no"?>
<svg
   xmlns:dc="http://purl.org/dc/elements/1.1/"
   xmlns:cc="http://creativecommons.org/ns#"
   xmlns:rdf="http://www.w3.org/1999/02/22-rdf-syntax-ns#"
   xmlns:svg="http://www.w3.org/2000/svg"
   xmlns="http://www.w3.org/2000/svg"
   xmlns:sodipodi="http://sodipodi.sourceforge.net/DTD/sodipodi-0.dtd"
   xmlns:inkscape="http://www.inkscape.org/namespaces/inkscape"
   version="1.0"
   width="1853.000000pt"
   height="1377.000000pt"
   viewBox="0 0 1853.000000 1377.000000"
   preserveAspectRatio="xMidYMid meet"
   id="svg3336"
   inkscape:version="0.91 r13725"
   sodipodi:docname="Justin_Timberlake_signature.svg">
  <defs
     id="defs3346" />
  <sodipodi:namedview
     pagecolor="#ffffff"
     bordercolor="#666666"
     borderopacity="1"
     objecttolerance="10"
     gridtolerance="10"
     guidetolerance="10"
     inkscape:pageopacity="0"
     inkscape:pageshadow="2"
     inkscape:window-width="1280"
     inkscape:window-height="721"
     id="namedview3344"
     showgrid="false"
     inkscape:zoom="0.31721133"
     inkscape:cx="1158.125"
     inkscape:cy="860.625"
     inkscape:window-x="-4"
     inkscape:window-y="-4"
     inkscape:window-maximized="1"
     inkscape:current-layer="g3340"
     showguides="false" />
  <metadata
     id="metadata3338">
Created by potrace 1.10, written by Peter Selinger 2001-2011
<rdf:RDF>
  <cc:Work
     rdf:about="">
    <dc:format>image/svg+xml</dc:format>
    <dc:type
       rdf:resource="http://purl.org/dc/dcmitype/StillImage" />
  </cc:Work>
</rdf:RDF>
</metadata>
  <g
     transform="matrix(0.1,0,0,-0.1,0,1377)"
     id="g3340"
     style="display:inline;fill:#000000;stroke:none">
    <path
       d="m 11114.796,13485.52 c -22,-19 -51,-56 -64,-82 -28,-56 -29,-100 -7,-400 8,-104 12,-165 21,-290 3,-49 8,-108 10,-130 6,-66 15,-175 20,-250 3,-38 7,-95 10,-125 3,-30 7,-81 10,-113 3,-33 7,-80 9,-105 3,-26 8,-81 12,-122 4,-41 8,-86 10,-100 1,-14 5,-47 8,-75 3,-27 7,-59 10,-70 2,-11 7,-40 10,-65 3,-25 8,-54 10,-65 2,-11 7,-40 11,-65 5,-37 23,-133 51,-285 2,-11 11,-54 19,-95 8,-41 17,-84 19,-95 2,-11 12,-56 21,-100 9,-44 19,-91 21,-105 3,-14 9,-38 14,-55 4,-16 12,-48 16,-70 9,-49 6,-35 42,-177 l 30,-117 -67,-21 c -245,-78 -288,-92 -301,-95 -8,-2 -53,-16 -100,-30 -47,-14 -155,-46 -240,-71 -191,-56 -383,-120.0008 -432,-145.0008 -43,-22 -65,-51 -74,-96 -13,-65 46,-113 138,-113 45,0 102,15 265,71 338,115 776.023,261.0988 787.746,259.9368 5.347,-5.775 6.254,-30.936 1.254,-104.9368 -4,-58 -8,-113 -10,-123 -2,-10 -7,-58 -11,-107 -4,-49.9995 -8,-96.9995 -10,-104.9995 -1,-9 -6,-47 -10,-84 -3,-37 -8,-77 -10,-87 -2,-10 -6,-45 -10,-77 -20,-191 -54,-323 -91,-352 -31,-25 -68,-21 -180,17 -83,29 -96,31 -145,22 -87,-17 -127,-53 -188,-170 -37,-71 -85,-129 -99,-122 -4,2 -15,8 -25,13 -30,17 -92,157 -152,343 -31,99 -67,203 -79,230 -28,63 -65.771,115.8709 -121.707,145.1744 -15.506,8.1232 -52.293,4.8256 -52.293,4.8256 0,0 -28,72 -51,146 -48,151.9995 -129,360.0003 -191,495.0003 -145,311 -276,561 -349,670 -267,394 -349,498 -520,659 -36,34 -72,68 -81,77 -9,9 -56,47 -103,85 -154,124 -315,208 -482,252 -73,19 -105,25 -190,38 -16,3 -40,7 -51,9 -120,26 -482,26 -615,0 -13,-3 -60,-12 -104,-20 -260,-47 -513,-124 -750,-230 -277,-123 -662,-315 -945,-472 -452,-251 -1132,-696 -1450,-949 -8,-7 -73,-59 -145,-115 -238,-188.0008 -602,-496.0003 -778,-659.0003 -248,-228 -740,-722 -956,-959 -13,-14 -47,-51 -75,-81 -28,-31 -80,-89 -116,-130 -36,-41 -70,-79 -76,-85 -6,-5 -37,-41 -70,-80 -32,-38 -64,-74 -70,-80 -10,-10 -158,-182 -205,-239 -13,-16 -38,-46 -55,-65 -102,-117 -457,-570 -551,-702 -172,-242 -378.00005,-560 -508.00005,-784 -71.99715,-117.8624 -136.43946,-263.3112 -189,-377 -77,-167 -109.9011,-247.7285 -196.95055,-506.4024 -61.19949,-188.7485 -71.04945,-317.5976 -74.04945,-331.5976 -12,-57 -7,-199 10,-256 59,-206 203,-328 447,-379 103,-22 362.00005,-22 553.00005,0 17,2 62,6 100,10 94,9 129,13 255,31 276,40 1056,258 1630,456 80,27 170,58 200,68 166,56 804,326 1210,512 36,17 126,57 200,90 74,33 167,75 205,93 39,18 93,43 120,55 28,12 77,35 110,50 33,15 112,51 175,80 63,29 149,68 190,87 72,34 138,65 280,131 495,229 2288,1122 2565,1277 566,316 776,454 982,647 228,215 372,410 388,528 9,62 -7,79 -91,100 -73,18 -258,21 -364,5 -97,-13 -162,-63 -144,-109 14,-36 118,-48 276,-31 61,6 67,5 77,-14 19,-35 -26,-97 -150,-206 -195,-173 -787,-539 -1409,-872 -180,-97 -451,-243 -520,-281 -376,-205 -1094,-559 -1825,-899 -414,-193 -436,-203 -441,-203 -2,0 -36,-15 -76,-34 -147,-68 -230,-106 -233,-106 -3,0 -33,-13 -67,-29 -35,-15 -97,-43 -138,-61 -41,-18 -103,-46 -138,-61 -34,-16 -66,-29 -70,-29 -4,0 -20,-7 -37,-16 -43,-22 -489,-210 -700,-294 -344,-137 -819,-311 -1075,-392 -648,-206 -989,-296 -1190,-313 -19,-2 -51,-5 -70,-9 -19,-3 -75,-8 -125,-11 -49,-4 -112,-9 -140,-11 -136,-13 -400.00005,-11 -459.00005,3 -105,24 -170,74 -206,157 -25,55 -31,102 -31,221 0,254 33.27494,388.575 116,606 44,104 258,530 320,636 135.00005,230 533.00005,797 782.00005,1113 154,195 398,498 413,510 3,3 39,46 80,95 41,50 77,92 80,95 4,3 60,66 124,140 474,542 1064,1119 1541,1504.9995 61,49 112,92 115,95 3,3 25,21 50,40 25,19 52,40 60,47 92,74.0008 341,267.0008 435,338.0008 66,50 122,93 125,96 9,11 264,185 375,256 113,72 358,216 500,293 109,59 378,206 443,242 257,142 736,351 1021,444 120,40 311,80 426,89 44,4 118,10 165,14 164,14 396,6 495,-18 238,-57 386,-134 570,-295 256,-223 495,-498 609,-701 9,-16 35,-61 57,-100 97,-171 198,-397 336,-750.0008 40,-104 77,-198.9995 82,-209.9995 46,-109 143,-373 199,-545 64,-194 86,-269 177,-610 41,-151 79,-288 84,-305 20,-62 59.236,-193.5057 56.236,-196.5057 -2,-2 -91.236,-40.4943 -190.236,-83.4943 -889,-382 -1588,-762 -2545,-1382 -285,-185 -750,-532 -934,-698 -6,-5 -34,-28 -61,-49 -28,-22 -57,-47 -66,-55 -8,-9 -38,-35 -65,-58 -558,-472 -1282,-1224 -1682,-1748 -75,-98 -232,-358 -295,-486 -71,-146 -86,-303 -38,-397 45,-89 180,-143 351,-143 58,0 115,3 127,5 12,3 48,7 80,11 141,15 292,73 344,133 25,28 29,39 23,70 -12,74 -66,88 -183,50 -46,-15 -137,-35 -246,-52 -57,-10 -207,-16 -231,-10 -61,15 -74,124 -30,254 42,122 214,386 463,707 82,106 120,152 226,273 145,166 622,651 793,807 158,145 343,303 539,458 55,44 106,86 115,92 328,268 966,741 1210,898 41,27 102,66 135,88 33,22 74,48 90,57 17,10 89,53 160,97 450,275 1080,600 1684,869 129,58 273.589,119.7454 273.589,119.7454 0,0 1.815,-7.5149 4.331,-18.5175 4.734,-20.6986 14.7,-62.5069 35.08,-142.2279 22,-82 41,-157 43,-165 2,-8 13,-53 25,-100 12,-47 23,-92 25,-100 2,-9 26,-110 53,-225 68,-280 99,-410 112,-470 7,-27 14,-58 16,-67 2,-10 6,-27 9,-39 2,-11 6,-28 9,-37 3,-9 7,-28 10,-42 2,-14 9,-44 15,-66 6,-23 15,-62 20,-85 5,-24 41,-181 80,-349 40,-168 78,-334 86,-370 8,-36 33,-141 55,-235 22,-93 54,-228 70,-300 16,-71 45,-197 65,-280 19,-82 37,-161 40,-175 3,-14 18,-80 34,-147 17,-67 32,-132 35,-145 2,-13 23,-98 45,-190 22,-92 43,-178 45,-190 5,-26 33,-145 105,-438 46,-191 219,-917 226,-950 2,-8 15,-64 30,-125 61,-257 96,-424 110,-524 3,-19 7,-46 10,-60 6,-37 24,-164 30,-219 3,-26 8,-58 10,-72 2,-14 11,-83 20,-155 17,-146 22,-182 30,-240 5,-44 10,-82 20,-165.00005 47,-406.00001 121,-649.00001 211,-686.00001 45,-19 79,-9 109,30 41,55 49,178 20,326 -3,14 -7,41 -11,60 -3,19 -9,55 -14,80.00001 -5,25 -19,97 -30,160 -12,63 -28,149.00005 -36,190.00005 -7,41 -16,89 -19,105 -34,198 -67,381 -75,425 -5,30 -19,105 -30,165 -10,61 -22,124 -25,140 -3,17 -10,57 -15,90 -15,91 -18,108 -51,270 -17,83 -41,197 -54,255 -13,58 -26,116 -29,130 -5,27 -35,158 -91,395 -20,83 -37,159 -39,170 -2,11 -11,47 -19,80 -9,33 -18,71 -21,85 -2,14 -23,104 -46,200 -50,210 -31,127 -139,605 -108,474 -131,572 -334,1375 -96.628,376.8397 -151.965,590.6066 -197.552,805.1973 -55.047,206.8311 -124.975,601.6202 -155.448,744.8027 -13,65 -137,577 -164,674 -16,61 -28,111 -27,112 4,4 355,144 504,200 412,157 932,331 1368,459 348,102 656,187 725,201 255.353,65.3532 271.088,68.3597 567,140 12,2 102,24 200,48 198,49 125.43,32.0219 263.822,63.3123 -17.631,-10.3443 -28.186,-23.8423 -34.822,-40.3123 -74.474,-184.8468 -47.479,-393.1446 -32,-597 2.414,-31.7867 7.333,-63.3333 11,-95 3.667,-31.6667 7.304,-63.3367 11,-95 6.615,-56.6728 13.828,-113.2774 20,-170 3.261,-29.9727 5.63,-60.0393 9,-90 3.004,-26.7058 6.557,-53.3472 10,-80 3.231,-25.0135 6.709,-49.9944 10,-75 3.377,-25.661 6.57,-51.346 10,-77 3.567,-26.6802 6.892,-53.3977 11,-80 19.127,-131.4185 45.014,-263.6369 70,-395 7.818,-41.1015 16.45,-82.0446 25,-123 14.63,-70.0783 29.427,-140.1252 45,-210 24.115,-108.2011 48.922,-216.2551 75,-324 7.683,-31.745 15.666,-63.4197 24,-95 34.936,-132.3768 71.583,-264.3032 109,-396 40.82,-143.6738 84.432,-286.5407 126,-430 17.853,-61.6131 35.22,-123.366 53,-185 40.409,-140.0747 81.328,-280.0017 122,-420 25.663,-88.3344 77,-265 77,-265 0,0 -3.455,-111.3556 -6,-167 -2.746,-60.0298 -3.687,-120.24 -10,-180 -2.268,-21.4727 -6.393,-42.7112 -10,-64 -12.396,-73.1651 -23,-143 -40,-219 -24,-110 -61.158,-253.1146 -102.169,-382 -32.922,-103.4615 -71.227,-235.425 -168.831,-282 -125.033,-59.6638 -304.494,23.7212 -397,123 7.009,54.5871 12.49,109.8931 17,165 21.607,263.9872 14.101,524.3797 0,786 -3.338,61.9361 -11.764,123.5232 -20,185 -11.206,83.646 -26.164,166.7487 -40,250 -3.217,19.3531 -5.962,38.8015 -10,58 -30.118,143.1969 -68.448,284.5706 -106,426 -7.555,28.4551 -15.504,56.8113 -24,85 -145.555,482.9596 -294.724,965.1271 -462,1441 -108.784,309.4727 -187.173,589.1608 -352,919 -12.939,25.8916 -36.817,59.8405 -68,54 -46.939,-8.7914 -92.115,-35.3719 -125,-70 -43.013,-45.292 -73,-107 -83,-168 -6,-45 -7,-347 0,-472 7,-132 6.171,-189.3288 19,-283 45.508,-332.2668 115.55,-679.4469 205,-985 25,-81 65.594,-236.0848 95,-355 33.233,-134.3912 61.102,-270.0528 92,-405 24.814,-108.376 10,-50 75,-325 29,-126 68,-277 118,-463 24,-86 146,-461 161,-492 5,-11 21,-49 36,-85 38,-93 73,-156 149,-260 l 66,-92 -6,-53 c -15,-120 -84,-153 -134,-65 -8,14 -40,99 -71,190 -63,180 -114,310 -161,401 -47,93 -129,160 -175,142 -23,-9 -62,-69 -77,-119 -23,-77 -15,-157 40,-434 48,-242 53,-273 77,-458 13,-107 20.849,-197.2622 2,-211 -61.687,-44.9604 -133.153,44.9029 -155,67 -181,182 -272,341 -420,737 -23,61 -46,119 -51,130 -27,59 -99,278 -105,316 -3,24 -8,51 -11,60 -2,9 -7,32 -9,50 -3,19 -7,45 -10,59 -3,14 -8,41 -11,60 -3,19 -12,64 -20,100 -7,36 -16,76 -18,90 -7,39 -61,286 -110,505 -62,276 -174,767 -191,840 -14,59 -79,362 -161,750 -2,11 -11,54 -19,95 -21,103 -20,101 -49,230 -14,63 -27,126 -30,140 -24,125 -72,314 -91,357 -30,66 -79,139 -108,157 -34,22 -74,8 -126,-43 -78,-78 -85,-100 -77,-275 3,-83 8,-167 10,-186 2,-19 7,-64 10,-100 4,-36 8,-76 10,-90 3,-14 7,-56 11,-93 3,-37 8,-76 10,-85 1,-9 6,-44 9,-77 4,-33 9,-67 11,-75 2,-8 6,-36 10,-62 16,-132 81,-406 164,-688 44,-153 71,-239 165,-530 37,-113 85,-268 107,-345 67,-234 201,-657 349,-1105 27,-80 51,-167 54,-195 4,-27 8,-61 11,-75 5,-31 13,-97 20,-175 3,-33 8,-76 10,-95 2,-19 7,-78 11,-130 3,-52 8,-120 11,-150 2,-30 6,-347 8,-704 3,-357 7,-657 10,-667 10,-31 57.392,-86.9125 93,-71 56.911,25.4326 114.521,88.362 117,137 0.931,143.3756 0,440 0,440 -1,384 -8,740 -20,885 l -3,45 37,-80 c 67,-143 99.742,-191.6112 176.463,-264.8929 57.544,-54.9637 127.01,-105.1681 204.537,-123.1071 97.144,-22.4781 217.043,-32.2075 298,26 65.882,47.3687 74.477,143.5923 97.282,223.1477 17.375,60.6128 22.584,175.1342 22.584,175.1342 0,0 40.134,-8.2819 67.134,-16.2819 26,-8 81,-15 121,-16 130,-2 169.477,28.7293 222.148,166.7249 15.246,39.9444 23.145,64.3346 33.852,74.2751 13.836,-3.1294 26,-11 46,-25 92,-61 260,-90 382,-66 141,28 288,153 358,304 67,144 149,402 187,590 l 19,89 54,-114 c 100,-209 208.516,-301.785 360,-396 51.245,-31.8713 114.53,-39.7467 174,-50 26.658,-4.5962 81,-5 81,-5 l -50,-46 c -71,-65 -130,-118 -197,-176 -32,-27 -68,-59 -80,-69 -43,-39 -254,-204 -326,-256 -142,-102 -182.978,-124.7527 -281,-190 -81.473,-58.5524 -164.269,-111.2047 -232,-154 -193,-122 -262,-175 -255,-198 7,-24 90,-60 126,-54 41,6 220,92 332,159 209,124 559,373 770,546 112,92 151,127 294,263 50,47 112,106 137,130 568,537 771,753 965,1028 98,140 357,528 427,641 198,321 304,548 522,1125 71,185 123.45,394.4501 146.45,514.4501 45,245 70.55,381.5499 70.55,659.5499 0,190 -4,253 -28,405 -15,91 -58.85,250.0997 -102.85,349.0997 -178,402 -272.95,457.9003 -469.15,624.9003 -249,177 -416,256 -752,355 -94,28 -197,48 -320,61 -308,34 -608,37 -1020,10 -96,-6 -220,-16 -260,-20 -19,-2 -66,-7 -105,-10 -38,-4 -81,-8 -95,-10 -14,-2 -43,-6 -65,-10 -22,-3 -60,-7 -85,-9 -151,-15 -567,-83 -835,-137 -277,-56 -761,-173 -1110,-268 -102.058,-25.1469 -121.087,-28.536 -245,-55 -222.967,56.5086 -399,163 -573,340 -160,162 -271,378 -426,828.0003 -28,82 -50,150 -49,151 2,1 64,21 138,45 131,41 373,122 476,160 80,29 162,48 239,56 146,13 185,32 185,86 0,76 -61,103 -212,95 -176,-10 -328,-43 -618,-136 -250,-80 -280,-89 -280,-84 0,3 -11,46 -24,96 -40,151 -84,390 -121,658 -10,75 -28,197 -45,299 -10,63 -21,129 -23,145 -3,17 -10,62 -17,100 -6,39 -13,84 -16,100 -2,17 -9,55 -14,85 -5,30 -12,75 -15,100 -3,25 -8,52 -10,60 -2,8 -6,38 -10,65 -3,28 -8,61 -10,75 -13,83 -21,231 -30,510 -21,698 -22,710 -34,742 -13,34 -50,58 -98,65 -33,4 -44,0 -78,-30 z m 545,-3837.0003 c 56,-141 150,-332 197,-402 119,-176 322,-364 486,-448 37,-19 52.623,-29.0311 70.297,-42.5827 -32.446,-11.4414 -45.297,-16.4173 -95.297,-32.4173 -153,-46 -717,-237 -873,-295 -237,-88 -404,-152 -600,-230 -125,-49 -228,-90 -230,-90 -2,0 -7,15 -10,33 -4,17 -36,135 -71,261 -36,126 -62,231 -59,234 3,3 13,-2 23,-11 10,-9 44,-28 76,-43 137,-63 251,2 301,173 12,40 23,56 49,73 65,39 97,33 183,-37 166,-134 329,-48 411,217 25,83 38,168 62,405 6,61 12,126 15,145 2,19 7,72 11,118 3,45 8,80.9995 9,79.9995 1,-2 22,-49.9995 45,-107.9995 z m 4513.151,-440.15 c 84.226,-4.7019 168.699,-10.6276 251.849,-24.85 246.955,-42.2407 496.944,-87.0423 730,-179 125.497,-49.5177 247.581,-113.8086 353,-198 143.846,-114.8797 276.334,-251.5212 370,-410 98.665,-166.9361 159.918,-358.1966 190.4,-549.6991 34.999,-219.8839 20.384,-447.5444 -11.85,-667.8508 -43.619,-298.1194 -135.312,-589.2701 -243.55,-870.4501 -103.679,-269.336 -243.185,-524.2109 -386,-775 -120.744,-212.0328 -258.625,-414.0287 -397,-615 -17.581,-25.5345 -35.74,-50.7066 -55,-75 -225.153,-283.9954 -463.674,-557.4117 -707,-826 -36.06,-39.8034 -60.24,-68.0497 -111.498,-116.3167 -2.281,77.6769 -109.347,130.8915 -172.502,57.3167 -31.364,-36.5387 -64.893,-87.8699 -113,-90 -70.656,-3.1285 -126.45,67.5356 -177,117 -63.18,61.8236 -110.69,139.3297 -151,218 -125.818,245.5511 -209.406,512.4995 -277,780 -16.527,65.4069 -20.812,133.311 -31,200 -23.671,154.9488 -46.416,310.0379 -70,465 -3.298,21.672 -6.624,43.34 -10,65 -4.937,31.6765 -9.838,63.3594 -15,95 -5.171,31.6936 -10.165,63.422 -16,95 -48.812,264.1417 -104.115,527.0531 -159,790 -12.891,61.7606 -26.757,123.3139 -40,185 -27.185,126.6271 -53.285,253.4879 -81,380 -2.925,13.3501 -6.045,26.6565 -9,40 -41.302,186.5271 -81.68,373.2582 -122,560 -16.475,76.3029 -32.366,152.7316 -49,229 -6.549,30.026 -13.157,60.0396 -20,90 -6.175,27.0367 -12.689,53.9947 -19,81 -23.753,101.6466 -46.906,203.4337 -71,305 -9.498,40.0403 -18.864,80.1163 -29,120 -25.491,100.3062 -37.509,205.6303 -80,300 -7.478,16.6078 -17.601,32.383 -30.197,45.5385 -13.007,13.5841 -34.701,31.947 -45.624,33.1922 66.902,14.1922 86.821,17.2693 185.821,31.2693 22,3 51,8 65,10 14,3 45,7 70,10 25,3 55,7 68,10 13,2 51,7 85,10 34,3 143.775,21.9221 215.95,30.6999 103.568,12.5957 207.392,23.3418 311.403,31.506 111.913,8.7845 224.015,16.4001 336.246,18.7941 155.495,3.3168 311.263,2.5189 466.552,-6.15 z m -2791.151,-2018.85 c 47.364,-99.7616 79.139,-212.3298 107,-296 35,-104 64,-197 66,-205 5,-22 106,-351 190,-620 40,-129 94,-309 119,-400 25,-91 50,-178 55,-195 33,-102 113,-476 131,-615 6,-47 13,-98 16,-115 18,-122 30.826,-753.255 14.816,-757.6633 -13.479,4.8674 -102.816,206.6633 -134.816,304.6633 -21,64 -57,188 -71,248 -2,8 -17,71 -34,140 -16,69 -32,136 -35,150 -15.115,69.184 -30.054,143.1704 -46,210 -5,25 -44,196 -85,380 -42,184 -92,405 -111,490 -20,85 -25.603,113.4259 -39,170 -23.958,101.1705 -50.91,201.6279 -74,303 -30.418,133.5423 -77,337 -85,402 -7.18,53.0014 -15.877,110.9116 -21,158 -12.982,85.776 -30.201,221.0477 -11,296 11,18 26,3 48,-48 z"
       id="path3342"
       inkscape:connector-curvature="0"
       sodipodi:nodetypes="csccscsccscccssccssscccccccsccsscccscccscccccsccsacccccscccccccccccccsccscccccccccccccccsccssccccccccccccccscscscscccccccccsccccccccssccccccccccccccccccscccccccccsccccccccccccccsccccscsscccccsccccscccsccscccccccscccccccsccccccccsccsccccccccsccccccasaaaaaaacaaaaaaaaacaaacsscsaaaaaaassaccacaaccccccccccscccsccccccssccccccccccccscccccsccccccccsccccscccccaaascccscccccccaacccccccccccccccccsccccccccscccccccccccsccsccccccssscccccccccccccsccssccccccccccaaaaaaaaaaaacsaaaaaaaaaaaaaaaaaaaaacccscsaaaaccccscccccccccccaacccc" />
  </g>
</svg>
