<?xml version="1.0" encoding="UTF-8" standalone="no"?>
<!-- Created with Inkscape (http://www.inkscape.org/) -->

<svg
   xmlns:dc="http://purl.org/dc/elements/1.1/"
   xmlns:cc="http://creativecommons.org/ns#"
   xmlns:rdf="http://www.w3.org/1999/02/22-rdf-syntax-ns#"
   xmlns:svg="http://www.w3.org/2000/svg"
   xmlns="http://www.w3.org/2000/svg"
   xmlns:sodipodi="http://sodipodi.sourceforge.net/DTD/sodipodi-0.dtd"
   xmlns:inkscape="http://www.inkscape.org/namespaces/inkscape"
   id="svg2"
   version="1.1"
   inkscape:version="0.48.5 r10040"
   width="300"
   height="205"
   sodipodi:docname="Amitabhbachchanji_signature.jpg">
  <metadata
     id="metadata8">
    <rdf:RDF>
      <cc:Work
         rdf:about="">
        <dc:format>image/svg+xml</dc:format>
        <dc:type
           rdf:resource="http://purl.org/dc/dcmitype/StillImage" />
        <dc:title></dc:title>
      </cc:Work>
    </rdf:RDF>
  </metadata>
  <defs
     id="defs6" />
  <sodipodi:namedview
     pagecolor="#ffffff"
     bordercolor="#666666"
     borderopacity="1"
     objecttolerance="10"
     gridtolerance="10"
     guidetolerance="10"
     inkscape:pageopacity="0"
     inkscape:pageshadow="2"
     inkscape:window-width="1360"
     inkscape:window-height="706"
     id="namedview4"
     showgrid="false"
     inkscape:zoom="0.95333333"
     inkscape:cx="150"
     inkscape:cy="102.5"
     inkscape:window-x="-8"
     inkscape:window-y="-8"
     inkscape:window-maximized="1"
     inkscape:current-layer="svg2" />
  <path
     style="fill:#000000"
     d="m 24.250004,195.04401 c -0.6875,-0.27741 -1.25,-1.33004 -1.25,-2.33918 0,-1.89062 13.51361,-11.41869 25.5,-17.97934 3.3,-1.80623 6.45,-3.61174 7,-4.01226 1.48791,-1.08351 22.16805,-11.4872 28.5,-14.33768 3.025,-1.36178 9.55,-4.36373 14.5,-6.67101 16.395896,-7.6424 18.970286,-8.79081 22.499996,-10.03702 1.925,-0.67965 6.3137,-2.52396 9.75267,-4.09848 3.43897,-1.57451 6.74453,-2.86275 7.34571,-2.86275 0.60117,0 2.28747,-0.62018 3.74733,-1.37818 3.98766,-2.0705 7.08938,-3.30094 13.08516,-5.19086 2.98698,-0.94151 6.81198,-2.50702 8.5,-3.47889 1.68802,-0.97187 6.32586,-2.54312 10.30631,-3.49165 3.98045,-0.94853 7.74805,-2.34016 8.37244,-3.09251 0.6244,-0.75235 1.72235,-1.36791 2.43989,-1.36791 0.71754,0 6.84994,-1.82045 13.62755,-4.04543 31.69265,-10.40422 72.50876,-20.166601 90.07294,-21.543611 8.26366,-0.64787 8.75,-0.57679 8.75,1.27868 0,1.734 -1.14471,2.10984 -9.75,3.20122 -13.4039,1.69995 -37.31646,6.576931 -49.25,10.044561 -3.575,1.03882 -11.45,3.30559 -17.5,5.03727 -6.05,1.73168 -11.9,3.53283 -13,4.00255 -1.1,0.46973 -3.8,1.29782 -6,1.84021 -2.2,0.5424 -9.85,3.09139 -17,5.66443 -7.15,2.57305 -14.575,5.14269 -16.5,5.71031 -5.90019,1.73979 -41.22084,15.88834 -45.99204,18.42323 -2.47063,1.31262 -4.87284,2.38658 -5.33826,2.38658 -0.46542,0 -3.76289,1.35 -7.32773,3 -3.56483,1.65 -6.78363,3 -7.15288,3 -1.28889,0 -25.978626,12.16061 -39.760226,19.58338 -15.80807,8.51423 -32.42886,19.26248 -32.42886,20.97092 0,1.9059 -3.07945,2.86101 -5.75,1.78342 z M 149.36163,181.20629 c -0.31659,-0.825 -0.32921,-2.14211 -0.028,-2.92692 0.56625,-1.47562 8.86953,-5.57308 11.29354,-5.57308 2.70951,0 1.29874,3.02171 -2.54306,5.44694 -2.15377,1.35961 -4.20533,2.94025 -4.55902,3.51254 -0.95316,1.54225 -3.50327,1.26082 -4.16341,-0.45948 z M 212,162.67111 c 0,-1.82052 3.18202,-5.96482 4.57983,-5.96482 2.1573,0 3.79332,3.84546 2.36712,5.56392 C 217.58427,163.91214 212,164.23439 212,162.67111 z M 1.2723644,150.70629 c 0,-2.475 0.19502,-3.4875 0.43337,-2.25 0.23835,1.2375 0.23835,3.2625 0,4.5 -0.23835,1.2375 -0.43337,0.225 -0.43337,-2.25 z M 34.335834,92.139079 c -0.33077,-0.86197 -0.0917,-2.07697 0.53138,-2.7 2.19704,-2.19704 1.06285,-2.73279 -5.78543,-2.73279 -3.80501,0 -7.63001,-0.27314 -8.5,-0.60698 -2.6874,-1.03126 -1.80436,-4.2257 1.66822,-6.03481 l 3.25,-1.69315 -2.84532,-0.77154 c -1.56493,-0.42434 -3.95672,-0.34898 -5.3151,0.16748 -7.05496,2.68229 -7.6928596,-0.25641 -1.93552,-8.91668 7.12784,-10.72181 5.81302,-12.63371 -4.95351,-7.20295 -3.2072096,1.61775 -6.1956196,2.71619 -6.6409196,2.44098 -2.82231995,-1.74429 2.35081,-7.19455 9.2237996,-9.71792 6.60145,-2.42369 10.40036,-2.17751 12.35156,0.80039 2.1173,3.23142 2.04726,4.06474 -0.86805,10.32682 -2.58398,5.55039 -2.6117,5.47867 2.54963,6.59786 3.25332,0.70545 5.74211,4.93118 4.08222,6.93122 -0.9588,1.15528 0.0256,1.48767 5.85298,1.97621 5.62906,0.47192 7.85362,0.21223 11.32109,-1.3216 l 4.31545,-1.90892 -2.2218,-7.2832 c -3.15388,-10.33858 -4.45516,-17.80894 -5.11184,-29.34574 l -0.57277,-10.062534 3.23563,-3.685174 C 58.341904,15.580294 75.201094,11.229686 89.418814,16.699315 97.064944,19.640824 104,25.88773 104,29.833654 c 0,3.873972 -1.25064,3.622001 -6.102036,-1.229398 -9.44174,-9.441737 -22.70527,-11.738815 -35.12159,-6.082622 -3.452,1.572545 -7.97382,4.617024 -10.04847,6.765509 -3.73079,3.863558 -3.7649,3.97211 -3.11446,9.912746 0.67176,6.13544 5.41276,25.9971 7.28191,30.5064 1.39638,3.36876 3.15637,5.43453 5.85465,6.87185 3.11689,1.6603 2.91081,5.94406 -0.5,10.39348 -3.18951,4.16073 -6.32445,5.92473 -8.32831,4.68628 -1.14469,-0.70746 -1.17606,-1.43937 -0.1753,-4.09067 0.67035,-1.77598 1.04526,-3.40262 0.83312,-3.61475 -0.75329,-0.75329 -9.02151,4.04196 -11.85497,6.87542 -3.14106,3.14106 -7.42931,3.81132 -8.38871,1.31118 z m 63.41417,-11.4593 c -0.9625,-0.59008 -1.75,-1.99334 -1.75,-3.11837 0,-2.18031 4.818626,-11.53779 8.069696,-15.67085 1.07707,-1.36927 1.78516,-2.66274 1.57353,-2.87437 -0.99184,-0.99184 -5.62714,2.23704 -6.606836,4.60223 -1.59862,3.85943 -4.93202,7.39346 -9.94407,10.54262 -3.7381,2.34871 -5.17541,2.69564 -9.46154,2.2838 -3.94465,-0.37903 -5.623,-0.0648 -7.64693,1.43152 -3.55965,2.63176 -5.98385,1.52488 -5.98385,-2.7322 0,-1.84148 1.8,-7.43852 4,-12.43787 2.2,-4.99934 4,-9.51952 4,-10.04485 0,-2.30666 -5.37713,-0.77802 -8.6,2.44485 -3.51554,3.51554 -4.31226,7.02692 -2.40359,10.5933 1.18459,2.21343 0.32803,5.0067 -1.53531,5.0067 -1.96342,0 -5.4611,-5.41457 -5.4611,-8.45403 0,-4.02217 2.47952,-7.98557 7.64256,-12.2163 3.92053,-3.21258 5.41351,-3.82779 9.26552,-3.81802 8.12593,0.0206 8.3698,0.32597 7.7837,9.74622 -0.28204,4.53318 -0.81837,9.41602 -1.19185,10.85078 -0.97612,3.74991 1.27555,4.18376 7.27871,1.40245 5.01342,-2.32275 6.9053,-4.95488 6.34004,-8.82072 -0.38437,-2.62868 1.72717,-4.69038 4.80376,-4.69038 1.47266,0 3.105056,-0.37562 3.627556,-0.83471 0.5225,-0.45909 3.10226,-1.62695 5.73279,-2.59523 3.80071,-1.39902 5.08406,-1.51048 6.25,-0.54284 1.22414,1.01594 1.46721,0.79676 1.46721,-1.32298 0,-5.79784 2.6388,-7.48571 5.4433,-3.48173 1.13289,1.61743 1.55298,4.68023 1.54305,11.25 -0.0163,10.76557 -0.62483,13.52749 -2.98054,13.52749 -2.89459,0 -3.88875,-2.21723 -4.20537,-9.37907 l -0.30044,-6.7957 -5.5,9.33739 c -7.38067,12.53021 -7.36236,12.28394 -0.8523,11.46506 9.18547,-1.15542 10.13926,-1.15805 10.53396,-0.029 0.21125,0.60424 -0.48663,2.1739 -1.55083,3.48814 -1.69701,2.09572 -2.89982,2.42456 -9.78287,2.67455 -4.37127,0.15876 -8.623216,-0.19025 -9.597956,-0.78783 z M 148.8067,66.842719 c -0.71868,-1.02496 -2.8817,-2.82496 -4.8067,-3.99999 l -3.5,-2.13642 -0.5,3.24999 c -0.4359,2.83333 -0.88462,3.24999 -3.5,3.24999 -2.83111,0 -2.98444,-0.20353 -2.72353,-3.61527 0.26627,-3.48184 -1.35209,-9.64243 -2.28735,-8.70718 -0.2502,0.2502 -0.0147,1.9898 0.5233,3.86576 1.29185,4.50441 0.42016,6.95669 -2.47282,6.95669 -2.58228,0 -3.16329,-1.0282 -5.06693,-8.96685 -1.66114,-6.92735 -0.62832,-9.44588 3.50166,-8.53878 1.60369,0.35223 3.11945,0.16292 3.48949,-0.43582 1.28772,-2.08358 4.48684,-1.05463 6.03618,1.94145 0.85325,1.65 2.23064,3 3.06086,3 0.83023,0 2.5846,0.70443 3.8986,1.5654 2.34845,1.53876 2.42411,1.48625 4.44684,-3.08648 3.24774,-7.34204 12.56861,-15.692409 23.39517,-20.959223 5.11006,-2.485897 10.73247,-4.519692 12.49465,-4.519692 3.04798,0 3.20388,0.186532 3.20388,3.833333 0,2.108334 -0.28152,4.114857 -0.62561,4.458942 -0.799,0.799005 -0.76629,13.2646 0.0382,14.56634 0.33317,0.53908 -0.11579,1.7017 -0.99769,2.5836 -1.36825,1.36824 -1.43537,2.3041 -0.45761,6.37986 1.48546,6.19211 0.11265,10.46903 -3.20893,9.99726 -1.68257,-0.23897 -2.3174,-1.0743 -2.5226,-3.31934 -0.15081,-1.65 -0.50134,-4.03024 -0.77895,-5.28943 -0.49475,-2.24414 -0.56224,-2.25547 -3.41141,-0.57242 -2.48643,1.46877 -3.48556,1.54357 -6.91066,0.51738 -6.47993,-1.94143 -6.76219,-8.06103 -0.77679,-16.84181 5.26844,-7.728989 5.25454,-7.854814 -0.42885,-3.881125 -6.53,4.565625 -11.3908,10.660575 -13.54574,16.984975 -1.46283,4.29317 -1.46151,4.82758 0.0159,6.46013 0.88593,0.97888 1.61074,2.98185 1.61074,4.45105 0,2.28996 -0.42013,2.67125 -2.9433,2.67125 -1.73735,0 -3.47868,-0.76355 -4.25,-1.86357 z M 175.2,48.706289 c 2.52323,0 2.8,-0.33953 2.8,-3.4349 0,-1.88919 0.47345,-4.68015 1.0521,-6.202135 l 1.05211,-2.767239 -2.20343,1.952139 c -1.21188,1.073675 -3.48532,3.952745 -5.0521,6.397925 -2.9119,4.54443 -3.81408,7.41961 -1.64868,5.25421 0.66,-0.66 2.46,-1.2 4,-1.2 z m 27.82343,8.52824 c -0.98278,-1.18418 -0.80219,-2.15015 0.92425,-4.94358 l 2.14571,-3.47183 -3.29009,0.94359 c -5.41114,1.55189 -6.8033,1.22902 -6.8033,-1.57785 0,-2.58701 0.61784,-2.99661 8.071,-5.35067 5.12601,-1.61904 7.74371,-1.39745 9.09737,0.77009 0.96826,1.55043 1.6053,1.70663 3.47886,0.85298 1.60021,-0.72911 2.68037,-0.72579 3.57316,0.011 0.7297,0.60217 3.33492,0.82276 6.06222,0.51329 3.54722,-0.40249 5.30307,-1.20433 6.7975,-3.10419 1.95586,-2.48647 3.28871,-3.145986 14.91989,-7.382609 6.31031,-2.298512 15.84778,-3.336666 17.88636,-1.946932 2.14184,1.46012 1.65491,8.355671 -0.95973,13.590961 -3.31109,6.62983 -8.63777,12.57069 -11.25455,12.55224 -5.36494,-0.0378 -6.02987,-3.70548 -1.11486,-6.14939 1.63013,-0.81055 4.01319,-3.84831 6.06412,-7.7301 C 260.4796,41.294379 262,38.256883 262,38.061527 c 0,-1.185178 -8.60139,-0.02633 -12.63367,1.702102 -7.41822,3.17982 -7.75871,3.68767 -4.81664,7.18413 1.39318,1.6557 2.36669,3.5162 2.16335,4.13447 -0.72118,2.19283 -4.75081,1.77011 -7.83072,-0.82147 l -3.07791,-2.58988 -3.437,3.01773 c -3.26879,2.87003 -9.36741,4.25956 -9.36741,2.1343 0,-0.48588 -1.22108,-1.11685 -2.71351,-1.40214 -2.06103,-0.39399 -4.02382,0.41957 -8.16279,3.38342 -5.97807,4.2808 -7.27671,4.62763 -9.10027,2.43038 z m -0.20476,-37.06423 c -3.14065,-1.705321 -4.46986,-4.974448 -2.8273,-6.953608 1.2,-1.44591 11.26929,-6.5456608 16.50863,-8.3610528 2.82738,-0.979668 11.26883,-1.65912 16.25,-1.307963 1.53046,0.107893 2.25,0.79821 2.25,2.158619 0,1.726347 -0.66667,2 -4.87236,2 -4.5167,0 -17.6652,3.6117728 -22.42809,6.1607958 -1.89733,1.015418 -1.92731,1.199491 -0.37977,2.331082 2.26646,1.657275 2.21716,5.520406 -0.0698,5.468084 -0.9625,-0.02202 -2.9566,-0.695201 -4.43133,-1.495957 z"
     id="path3073"
     inkscape:connector-curvature="0" />
</svg>
