<?xml version="1.0" encoding="UTF-8" standalone="no"?>
<!-- Created with Inkscape (http://www.inkscape.org/) -->

<svg
   xmlns:dc="http://purl.org/dc/elements/1.1/"
   xmlns:cc="http://creativecommons.org/ns#"
   xmlns:rdf="http://www.w3.org/1999/02/22-rdf-syntax-ns#"
   xmlns:svg="http://www.w3.org/2000/svg"
   xmlns="http://www.w3.org/2000/svg"
   xmlns:sodipodi="http://sodipodi.sourceforge.net/DTD/sodipodi-0.dtd"
   xmlns:inkscape="http://www.inkscape.org/namespaces/inkscape"
   id="svg2985"
   version="1.1"
   inkscape:version="0.48.1 "
   width="189"
   height="57"
   sodipodi:docname="path3019.png">
  <metadata
     id="metadata2991">
    <rdf:RDF>
      <cc:Work
         rdf:about="">
        <dc:format>image/svg+xml</dc:format>
        <dc:type
           rdf:resource="http://purl.org/dc/dcmitype/StillImage" />
        <dc:title></dc:title>
      </cc:Work>
    </rdf:RDF>
  </metadata>
  <defs
     id="defs2989" />
  <sodipodi:namedview
     pagecolor="#ffffff"
     bordercolor="#666666"
     borderopacity="1"
     objecttolerance="10"
     gridtolerance="10"
     guidetolerance="10"
     inkscape:pageopacity="0"
     inkscape:pageshadow="2"
     inkscape:window-width="1366"
     inkscape:window-height="706"
     id="namedview2987"
     showgrid="false"
     inkscape:zoom="2.5396825"
     inkscape:cx="94.5"
     inkscape:cy="28.5"
     inkscape:window-x="-8"
     inkscape:window-y="-8"
     inkscape:window-maximized="1"
     inkscape:current-layer="svg2985" />
  <path
     style="fill:#000000"
     d="m 58.400268,54.827623 c -2.903396,-1.412234 -4.02995,-1.549923 -5.14047,-0.628273 -1.094939,0.908719 -1.87211,0.899349 -3.377401,-0.04072 -1.577748,-0.98532 -2.36603,-0.933287 -4.083293,0.269531 -1.898335,1.329645 -2.42985,1.312322 -4.923069,-0.160459 -2.604771,-1.538677 -2.922184,-1.535911 -4.664246,0.04063 -2.414705,2.185278 -3.112903,2.133193 -5.847949,-0.43625 l -2.265063,-2.127916 -3.606549,2.127916 c -6.834612,4.03252 -7.352521,2.127392 -1.365593,-5.023335 2.269649,-2.710847 4.358774,-4.696673 4.642501,-4.412947 0.283726,0.283726 -0.05336,1.201741 -0.74908,2.040032 C 26.220303,47.439477 26.149182,48 26.826664,48 29.738518,48 36.133731,36.137714 38.057224,27.168776 39.488038,20.497122 38.03422,15.89062 33.376648,12.338117 27.992662,8.2315507 21.646242,8.035279 13.808458,11.732944 3.4461824,16.6216 3.0182933,17.193305 2.3274307,27.072816 1.7473943,35.367485 3.1257335,43.65836 4.9022125,42.560436 5.3097789,42.308546 6.3941085,42.979402 7.3118337,44.051227 8.229559,45.123052 9.6598294,46 10.490213,46 c 1.790658,0 2.026815,1.660991 0.317181,2.230869 -0.770289,0.256763 -0.172743,1.791254 1.68744,4.333333 C 14.894668,55.843754 14.337507,55.499574 9.1532926,50.5 2.3537361,43.942617 0,38.687032 0,30.061897 0,20.320004 3.3612149,14.978621 12.5,10.197865 19.085134,6.7529949 30.00463,6.4022214 34.224357,9.5 c 8.281985,6.079955 7.081955,21.450398 -2.865257,36.699311 -1.685637,2.584055 -1.683013,2.785287 0.06145,4.712897 1.683575,1.860329 2.041363,1.900288 4.700861,0.525009 2.550855,-1.319099 3.208366,-1.318044 5.775101,0.0093 2.722803,1.408016 2.987463,1.364578 4.413122,-0.72432 1.477718,-2.165176 1.553418,-2.173366 2.951786,-0.319389 1.888138,2.503323 3.413061,1.415752 4.87998,-3.480387 0.713743,-2.382262 1.488531,-3.521173 1.92023,-2.822671 0.460054,0.744383 1.764647,0.911699 3.581037,0.459273 L 62.5,43.847285 59.649645,46.83311 c -2.209438,2.314445 -2.63082,3.378111 -1.874016,4.730445 0.882359,1.576687 1.143736,1.489143 2.715365,-0.909466 2.153184,-3.286174 3.293827,-3.350252 4.472074,-0.251228 1.200309,3.157053 2.787523,4.04902 4.571071,2.568806 0.903231,-0.749615 1.221649,-2.096504 0.847787,-3.586089 -0.329308,-1.312068 -0.306418,-3.550291 0.05087,-4.973829 0.515655,-2.054532 0.932408,-2.353548 2.021032,-1.450071 1.036075,0.859866 2.243284,0.773891 4.936957,-0.351597 4.342452,-1.814392 5.060641,-0.934735 3.089159,3.783685 -1.634923,3.91292 -1.43744,4.189039 1.768797,2.473114 1.777294,-0.951179 2.409005,-0.772824 3.934258,1.110783 0.999352,1.234148 1.802748,3.206552 1.785324,4.383121 -0.02982,2.013499 -0.148936,1.982161 -2.026931,-0.533255 -1.7214,-2.305672 -2.401456,-2.555972 -4.954835,-1.823673 -3.788229,1.08645 -4.424979,-0.01879 -2.569393,-4.459838 1.695569,-4.058066 0.977221,-4.42868 -2.809923,-1.449711 -2.303305,1.81178 -2.572207,2.575503 -1.993307,5.661307 0.588323,3.136029 0.455524,3.485016 -1.099127,2.88844 -0.972565,-0.373208 -2.273764,-0.277332 -2.891552,0.213059 -2.249565,1.785667 -7.51969,1.771819 -11.222984,-0.02949 z M 24.530297,51.196963 C 23.858364,50.52503 21,53.019183 21,54.277432 c 0,0.567899 0.902759,0.215558 2.006131,-0.78298 1.103372,-0.998538 1.789246,-2.032408 1.524166,-2.297489 z m 113.101453,3.656761 c -1.02754,-0.597001 -4.06504,-0.874374 -6.75,-0.616383 C 126.53283,54.655217 126,54.491412 126,52.736576 c 0,-2.121858 -0.26518,-2.098741 -7.5,0.653805 -4.55033,1.73121 -9.5,2.073322 -9.5,0.656623 0,-0.867422 6.05785,-3.028023 8.52749,-3.041427 0.56513,-0.0031 2.03574,-0.711779 3.26804,-1.574916 l 2.24055,-1.569338 -2.01804,-2.56552 c -2.72451,-3.463656 -2.55419,-5.805719 1.08276,-14.888567 2.69086,-6.7201 3.05217,-8.706833 2.73299,-15.027654 -0.32124,-6.3613136 -0.72449,-7.6560579 -3.1841,-10.2233368 -5.43272,-5.67053956 -13.46054,-4.73928647 -20.29259,2.3540048 -6.009146,6.238925 -8.679861,13.962211 -8.095015,23.409499 0.398374,6.435103 0.278756,7.172798 -0.901378,5.55887 C 89.038514,31.935248 92.533653,16.744777 98.867164,8.2004482 104.05812,1.1974979 114.37827,-2.0300118 121,1.2786533 c 6.89392,3.4446698 7.87742,14.9354927 2.4755,28.9228317 l -3.5245,9.126086 2.57288,3.887876 2.57287,3.887876 3.47921,-2.15027 3.47921,-2.15027 -0.65539,4.098609 C 130.78171,50.766584 130.88451,51 133.20483,51 c 1.67014,0 3.4981,-1.29123 5.69098,-4.019973 1.7768,-2.210986 3.65211,-3.759428 4.16736,-3.440983 1.41875,0.876832 1.16275,1.848957 -1.53303,5.821409 -2.63518,3.883155 -1.6399,4.805581 2.24735,2.082843 C 145.35617,50.337546 146,48.870076 146,46.377555 146,42.476515 147.49022,39 149.16241,39 c 0.70872,0 0.92239,1.76562 0.60874,5.029928 -0.26583,2.766461 -0.0725,5.283826 0.4296,5.594144 1.90261,1.175877 5.38256,-0.713595 7.55844,-4.103927 1.24256,-1.93608 2.70506,-3.520145 3.25,-3.520145 1.62633,0 1.12167,4.183825 -0.66197,5.488054 C 158.57595,48.783243 159.26355,51 161.43657,51 c 2.08267,0 3.57021,-2.428771 4.37505,-7.143359 0.98035,-5.742707 3.64089,-6.055215 3.79771,-0.446082 0.0712,2.54647 0.7501,4.379092 1.94626,5.253747 2.18361,1.596692 3.47318,0.633401 4.94441,-3.693397 1.3776,-4.051448 2.69774,-4.071254 4.5876,-0.06883 0.88351,1.871144 1.88119,2.957444 2.21705,2.414 0.33587,-0.543445 1.64222,-0.912084 2.90301,-0.819199 2.10025,0.154729 2.29297,0.501226 1.5382,2.76553 -0.23604,0.70812 -6.8602,2.054286 -16.16634,3.285332 -2.24489,0.296962 -4.19942,0.06727 -4.57315,-0.537431 -0.4424,-0.715818 -1.82001,-0.568299 -4.27602,0.457889 -2.39401,1.000283 -3.8396,1.164053 -4.2607,0.482696 -0.8338,-1.349121 -12.06123,-0.143526 -15.66999,1.682635 -3.17121,1.604744 -2.81127,1.589408 -5.16791,0.220192 z M 149,44 c 0,-1.1 -0.45,-2 -1,-2 -0.55,0 -1,0.9 -1,2 0,1.1 0.45,2 1,2 0.55,0 1,-0.9 1,-2 z m 29.60417,-0.729167 c -0.3323,-0.332291 -0.56864,0.258334 -0.52522,1.3125 0.048,1.164943 0.28494,1.4019 0.60416,0.604167 0.28887,-0.721875 0.25335,-1.584375 -0.0789,-1.916667 z M 100.75,50.125 c -0.4125,-1.85625 -0.69014,-7.25625 -0.61698,-12 l 0.13301,-8.625 0.87713,8 c 0.48242,4.4 0.76006,9.8 0.61698,12 l -0.26014,4 -0.75,-3.375 z M 42,37.583333 C 42,36.7125 42.7125,36 43.583333,36 45.34926,36 45.041723,38.152759 43.1875,38.770833 42.534375,38.988542 42,38.454167 42,37.583333 z"
     id="path2995"
     inkscape:connector-curvature="0" />
</svg>
