<?xml version="1.0" encoding="UTF-8" standalone="no"?>
<!-- Created with Inkscape (http://www.inkscape.org/) -->

<svg
   xmlns:dc="http://purl.org/dc/elements/1.1/"
   xmlns:cc="http://creativecommons.org/ns#"
   xmlns:rdf="http://www.w3.org/1999/02/22-rdf-syntax-ns#"
   xmlns:svg="http://www.w3.org/2000/svg"
   xmlns="http://www.w3.org/2000/svg"
   xmlns:sodipodi="http://sodipodi.sourceforge.net/DTD/sodipodi-0.dtd"
   xmlns:inkscape="http://www.inkscape.org/namespaces/inkscape"
   id="svg3057"
   version="1.1"
   inkscape:version="0.48.1 "
   width="140"
   height="129"
   sodipodi:docname="PriyankaChopra_Signature.jpg">
  <metadata
     id="metadata3063">
    <rdf:RDF>
      <cc:Work
         rdf:about="">
        <dc:format>image/svg+xml</dc:format>
        <dc:type
           rdf:resource="http://purl.org/dc/dcmitype/StillImage" />
        <dc:title></dc:title>
      </cc:Work>
    </rdf:RDF>
  </metadata>
  <defs
     id="defs3061" />
  <sodipodi:namedview
     pagecolor="#ffffff"
     bordercolor="#666666"
     borderopacity="1"
     objecttolerance="10"
     gridtolerance="10"
     guidetolerance="10"
     inkscape:pageopacity="0"
     inkscape:pageshadow="2"
     inkscape:window-width="1366"
     inkscape:window-height="706"
     id="namedview3059"
     showgrid="false"
     inkscape:zoom="2.255814"
     inkscape:cx="70"
     inkscape:cy="64.5"
     inkscape:window-x="-8"
     inkscape:window-y="-8"
     inkscape:window-maximized="1"
     inkscape:current-layer="svg3057" />
  <path
     style="fill:#000000"
     d="m 26,124.84419 c 13.117317,-11.52272 40.50667,-25.343555 64.5,-32.547098 6.172587,-1.853202 7.10967,-2.595442 7.831153,-6.202855 0.3147,-1.573501 0.843221,-3.940817 1.174491,-5.260703 0.495756,-1.975263 0.202882,-2.429881 -1.655581,-2.569875 -1.241839,-0.09355 -2.838732,0.311974 -3.54865,0.901154 -0.709918,0.589179 -2.260234,0.817712 -3.445146,0.507851 -1.53233,-0.400713 -2.721487,0.157568 -4.118447,1.933515 -1.080234,1.373294 -2.634614,2.361207 -3.454178,2.19536 -0.819563,-0.165846 -3.850181,2.060961 -6.734705,4.948461 -5.851132,5.857168 -8.655478,6.543224 -11.154722,2.728895 -2.088669,-3.187711 -1.460663,-8.605226 1.751448,-15.108943 3.066841,-6.209581 9.155,-12.649602 11.532426,-12.198935 2.534633,0.480466 2.861646,5.658567 0.765468,12.1208 -1.721783,5.308019 -4.406981,9.552652 -2.978445,4.708183 3.53717,-11.995299 3.925794,-14.009094 2.901213,-15.033675 -1.708277,-1.708277 -6.576705,3.074998 -10.366277,10.184964 -4.814208,9.03238 -4.491489,16.767253 0.702333,16.833398 0.661309,0.0084 3.389868,-2.172174 6.063462,-4.845768 3.961432,-3.961432 5.462511,-6.542418 8.110786,-13.945851 3.309133,-9.250903 6.62508,-15.211103 8.873371,-15.949309 2.676749,-0.878885 1.060585,4.670512 -3.858849,13.250075 -2.809867,4.900447 -5.361172,9.606563 -5.669566,10.458035 -1.04243,2.878139 3.501941,-1.870187 4.80836,-5.024163 1.483109,-3.58054 2.868657,-3.848107 2.214806,-0.427706 -0.321946,1.684152 -0.03194,2.495003 0.888672,2.484687 2.111909,-0.02366 3.432269,-1.216689 4.96335,-4.484687 0.773037,-1.65 2.980005,-3.773406 4.904377,-4.71868 1.92437,-0.945274 4.77219,-2.883868 6.3285,-4.307986 3.56624,-3.26334 6.24006,-2.898677 5.98209,0.815854 C 113.20819,67.780135 113.46725,69 113.88742,69 c 1.07892,0 4.69454,-4.159955 5.43218,-6.25 0.3397,-0.9625 1.1299,-1.75 1.756,-1.75 0.69196,0 0.85585,0.686274 0.41794,1.75 -0.39625,0.9625 -0.96263,2.597746 -1.25864,3.633881 -0.95534,3.344099 2.13542,1.243173 4.04274,-2.748027 0.97771,-2.045911 2.47045,-3.985694 3.31722,-4.310629 1.90216,-0.729929 4.09106,1.13282 2.49227,2.120924 C 129.48921,61.815686 129,62.991476 129,64.059017 c 0,1.417756 0.74131,1.977693 2.75,2.077165 2.43877,0.12077 2.48913,0.186044 0.44496,0.576764 -1.26778,0.24232 -2.94177,-0.08786 -3.71999,-0.733722 -1.12579,-0.934317 -2.18745,-0.536865 -5.19496,1.944818 -3.67984,3.036466 -3.79371,3.062068 -4.2971,0.96612 l -0.51709,-2.153 -2.98291,2.48285 c -4.68258,3.897591 -7.51671,5.146189 -8.79027,3.872629 C 106.09169,72.491688 105.25958,72 104.84351,72 c -0.94339,0 -6.092206,16.084638 -5.377575,16.799268 0.286643,0.286644 2.367885,-0.03212 4.624975,-0.708359 2.25709,-0.676241 4.32453,-1.008799 4.59431,-0.739017 0.26979,0.269781 -2.02402,1.283151 -5.09735,2.251932 C 99.499975,90.892419 98,91.853091 98,93.182622 98,94.18218 97.501855,95 96.893011,95 96.284167,95 96.045044,94.325 96.361626,93.5 97.210387,91.288166 95.34923,91.597738 83.955979,95.563468 62.153463,103.15243 41.766861,113.6371 29.699319,123.46725 23.472163,128.53986 20.558175,129.62449 26,124.84419 z M 100,75 c 0,-2.109085 -1.454882,-2.691037 -2.5,-1 -0.729202,1.179874 0.216667,3 1.559017,3 C 99.576558,77 100,76.1 100,75 z m 3.6328,-4.700538 c -0.98434,-0.984339 -3.43352,1.056281 -2.90883,2.423596 0.52088,1.357384 0.76845,1.324003 1.92652,-0.259758 0.73087,-0.999514 1.1729,-1.973241 0.98231,-2.163838 z M 91.472908,63.719083 C 92.327571,61.673587 92.620358,60 92.123547,60 c -0.956203,0 -4.388247,6.793108 -5.557468,11 -0.634744,2.283827 -0.519823,2.237919 1.329036,-0.530917 1.113124,-1.667005 2.723131,-4.704505 3.577793,-6.75 z m 19.491912,6.346658 C 112.25123,67.662058 112.31629,64 111.07258,64 c -1.59291,0 -4.9888,5.05475 -4.40971,6.563824 0.78399,2.043052 3.08452,1.776695 4.30195,-0.498083 z M 129,60.377555 c 0,-1.120334 -1.87801,-0.137848 -2.4159,1.263889 -0.52667,1.372472 -0.38034,1.434339 0.89301,0.377555 C 128.3147,61.32386 129,60.585211 129,60.377555 z M 33.44113,111.57778 c -1.562088,-1.14451 -1.904269,-2.49494 -1.752361,-6.91575 0.403424,-11.740399 4.947236,-20.964492 13.742501,-27.89774 2.787802,-2.197605 5.420304,-4.920835 5.850005,-6.051622 1.045249,-2.750643 -1.068826,-3.974881 -3.691642,-2.137789 C 46.470578,69.358695 44.833557,70 43.951808,70 43.070059,70 41.291745,71.125 40,72.5 c -2.898656,3.085478 -3.761987,3.136739 -4.210413,0.25 -0.307734,-1.981039 -0.60961,-1.771848 -2.525355,1.75 -1.196712,2.2 -2.194046,3.325 -2.216298,2.5 -0.06389,-2.368779 3.882758,-8.19193 5.231981,-7.719618 0.671047,0.234908 1.087858,1.167921 0.926248,2.073362 -0.16161,0.905441 0.17589,1.646256 0.75,1.646256 0.57411,0 1.058808,-0.3375 1.077106,-0.75 0.0183,-0.4125 0.936262,-1.834537 2.039919,-3.160081 1.508633,-1.81194 2.291173,-2.125558 3.153077,-1.263654 0.861904,0.861904 1.582185,0.752073 2.902217,-0.44254 0.965685,-0.873932 2.344329,-1.390697 3.063654,-1.148365 0.719325,0.242331 2.08875,-0.836489 3.043166,-2.397379 C 54.958065,61.020506 57,60.045566 57,62.040493 57,62.612763 56.047855,64.36883 54.884123,65.942862 51.858922,70.034666 52.906345,71.415444 56.75,68.402574 58.887493,66.727089 60,64.989849 60,63.327522 60,60.513754 65.824818,54 68.340983,54 c 2.309729,0 2.903982,1.683601 1.492809,4.229333 C 69.141509,59.4782 68.670699,60.8375 68.787548,61.25 68.904397,61.6625 68.51582,62 67.924044,62 c -0.887119,0 -5.985846,3.719726 -14.524912,10.596505 -0.748857,0.603078 -2.683153,6.9578 -4.298436,14.121605 -3.0984,13.74145 -6.587383,22.10852 -10.304773,24.71228 -2.738419,1.91806 -2.930849,1.92336 -5.354793,0.14739 z m 5.892291,-2.56218 c 1.381165,-1.64142 3.39751,-5.35392 4.480766,-8.25 2.10419,-5.62554 6.514487,-24.77026 5.857564,-25.427183 C 48.528537,74.195204 38.796525,84.737129 36.48568,89.621853 32.204362,98.671816 31.935079,112 36.033551,112 c 0.433764,0 1.918706,-1.34298 3.29987,-2.9844 z M 66,60.956419 c 0,-0.447459 0.711161,-1.524723 1.580357,-2.393919 0.869197,-0.869196 1.391518,-2.138839 1.160714,-2.821429 C 68.188716,54.10751 61,61.241352 61,63.423053 c 0,1.493401 0.199703,1.492202 2.5,-0.01501 1.375,-0.900935 2.5,-2.004166 2.5,-2.451624 z M 7.2,89.8 C 0.44380543,83.043805 21.595359,38.174784 40.389468,19.39482 48.479489,11.310888 59.994499,5.0431727 70.761777,2.8629211 c 5.528957,-1.1195513 6.451117,-1.0785982 7.87965,0.3499345 1.076104,1.0761035 1.40534,2.4646739 0.98319,4.1466518 C 78.075798,13.530493 59.142278,37.262055 48.267216,46.663351 42.989027,51.226251 33.526233,58.568797 32.099909,59.208189 31.741881,59.368685 28.688782,65.125 25.315243,72 17.249149,88.438048 11.493519,94.093519 7.2,89.8 z m 6.558891,-1.343674 C 17.323316,85.959705 23.595833,74.190122 29.548365,58.829374 32.602438,50.948218 35.52947,43.6 36.052882,42.5 c 1.790274,-3.762433 -0.196633,4.669546 -2.203619,9.351655 -1.044739,2.437278 -1.681826,4.649115 -1.415748,4.915194 0.985021,0.98502 14.491318,-9.976263 22.167937,-17.990794 C 72.184832,20.418682 81.509868,5.284093 76.43669,3.3373319 72.194553,1.7094715 53.597284,9.259396 44.934844,16.126121 28.788202,28.925581 2.0430899,81.322362 7.995503,88.494581 c 1.5849382,1.909734 2.995612,1.900371 5.763388,-0.03825 z M 72.158121,59 C 74.583593,55.719374 76,55.16636 76,57.5 c 0,3.153135 3.650219,1.022685 4.149185,-2.421672 0.192948,-1.33192 0.981554,-2.629666 1.752457,-2.883881 1.008868,-0.332686 1.245271,0.135757 0.84362,1.671672 -0.687638,2.629529 1.33215,2.855563 3.430282,0.383881 0.817035,-0.9625 2.300628,-3.95723 3.296873,-6.654955 C 93.675878,36.212518 102.33189,24 106.19617,24 c 2.93726,0 2.13646,2.274559 -4.19617,11.918616 -3.937689,5.99677 -6,10.159008 -6,12.10944 0,4.778853 2.478596,3.68012 5.25924,-2.331362 C 103.02285,41.883939 105,41.499916 105,44.970123 105,47.00716 99.654062,52 97.472965,52 c -0.755472,0 -1.764228,-0.698041 -2.241682,-1.551203 -0.727845,-1.300588 -1.501763,-0.970788 -4.790213,2.041315 -2.157164,1.975885 -5.051381,3.859366 -6.431593,4.185512 -1.380212,0.326147 -3.28218,1.263908 -4.226595,2.083915 -0.944415,0.820007 -2.61537,1.256023 -3.713233,0.968926 -1.097862,-0.287098 -2.517759,0.106549 -3.155326,0.87477 C 70.640683,63.342803 69.981148,61.944514 72.158121,59 z M 96.280946,42.25 C 106.82974,27.162769 109.82486,19.905521 101.85249,28.75 98.978883,31.937961 90,47.583456 90,49.402695 c 0,1.476368 1.215172,0.09254 6.280946,-7.152695 z m 7.525924,2.223539 c -0.30789,-0.307888 -0.86705,0.247112 -1.24258,1.233333 -0.54268,1.425198 -0.42782,1.540062 0.5598,0.559795 0.68342,-0.678334 0.99067,-1.485241 0.68278,-1.793128 z"
     id="path3069"
     inkscape:connector-curvature="0" />
</svg>
