<?xml version="1.0" standalone="no"?>
<!DOCTYPE svg PUBLIC "-//W3C//DTD SVG 20010904//EN"
 "http://www.w3.org/TR/2001/REC-SVG-20010904/DTD/svg10.dtd">
<svg version="1.0" xmlns="http://www.w3.org/2000/svg"
 width="900.000000pt" height="435.000000pt" viewBox="0 0 900.000000 435.000000"
 preserveAspectRatio="xMidYMid meet">
<metadata>
Created by potrace 1.10, written by Peter Selinger 2001-2011
</metadata>
<g transform="translate(0.000000,435.000000) scale(0.100000,-0.100000)"
fill="#000000" stroke="none">
<path d="M861 3685 c-43 -39 -121 -179 -121 -217 0 -12 -7 -36 -15 -52 -8 -15
-15 -40 -15 -55 0 -14 -7 -35 -15 -45 -8 -11 -15 -29 -15 -40 0 -22 -30 -117
-61 -196 -24 -63 -49 -139 -58 -180 -4 -19 -13 -45 -19 -57 -7 -12 -12 -37
-12 -57 0 -19 -5 -38 -10 -41 -5 -3 -10 -20 -10 -36 0 -16 -7 -46 -15 -65 -8
-20 -12 -40 -9 -45 2 -5 0 -18 -6 -30 -7 -12 -13 -35 -15 -53 -3 -30 -15 -92
-35 -191 -6 -27 -13 -66 -15 -85 -3 -19 -7 -46 -9 -60 -4 -23 -20 -139 -46
-330 -6 -41 -12 -109 -15 -150 -3 -41 -8 -113 -12 -160 -8 -92 -7 -164 3 -249
7 -62 45 -111 87 -111 36 0 49 23 63 103 7 40 17 99 24 131 14 71 3 102 -41
111 -45 10 -51 26 -51 137 -1 107 11 183 62 413 6 25 14 64 18 88 5 23 12 48
16 55 4 7 12 36 17 65 5 28 14 72 20 97 6 25 13 61 15 80 7 46 39 89 54 74 8
-8 8 -19 0 -39 -6 -16 -9 -34 -6 -41 3 -7 1 -41 -4 -76 -9 -65 -17 -152 -25
-298 -7 -124 -15 -161 -40 -195 -13 -16 -37 -55 -53 -85 -26 -47 -29 -61 -23
-100 14 -85 40 -109 76 -70 31 35 50 22 46 -32 -4 -67 19 -207 40 -250 23 -45
53 -57 80 -32 16 15 19 26 14 54 -7 38 -13 98 -20 218 -3 42 -7 106 -9 142
-23 338 -22 450 4 658 11 86 23 170 26 186 3 16 8 40 10 55 4 34 31 183 44
246 6 28 15 70 20 95 5 25 14 68 20 95 6 28 14 66 17 85 3 19 9 40 14 46 5 6
11 29 13 51 1 21 8 48 14 60 7 12 12 32 12 44 0 12 4 36 10 53 5 17 16 58 25
91 9 33 22 80 30 105 20 65 4 120 -36 120 -11 0 -37 -16 -58 -35z"/>
<path d="M4695 3603 c-62 -26 -115 -68 -173 -136 -87 -100 -104 -136 -104
-215 -1 -170 49 -230 331 -392 67 -38 148 -81 179 -94 89 -37 98 -59 106 -269
12 -282 11 -302 -18 -352 -31 -51 18 -12 -486 -402 -91 -71 -181 -137 -200
-147 -44 -22 -66 -41 -106 -88 -56 -65 -54 -191 4 -293 36 -63 104 -109 390
-265 78 -42 151 -85 163 -96 22 -19 22 -56 4 -289 -3 -33 -7 -94 -9 -137 -3
-42 -8 -91 -11 -110 -8 -46 12 -73 49 -64 36 9 61 67 71 161 8 70 12 110 21
195 3 25 5 56 4 69 0 13 5 41 10 62 l11 39 57 -6 c74 -7 105 12 173 106 53 72
74 83 103 55 31 -31 61 -18 122 51 32 36 69 71 83 79 14 7 41 27 60 44 19 17
43 31 54 31 31 0 73 -51 80 -97 12 -71 119 -175 236 -227 40 -18 42 -18 61 -1
11 10 20 23 20 29 0 15 -52 46 -77 46 -46 0 -133 93 -133 142 0 20 -34 83 -64
118 -14 17 -26 36 -26 41 0 19 -73 98 -102 110 -35 14 -40 10 -114 -87 -55
-74 -84 -91 -102 -58 -9 15 6 105 26 155 6 15 8 29 6 32 -3 3 4 25 15 50 12
25 21 56 21 69 1 13 7 34 15 48 8 14 14 35 15 48 0 13 9 42 20 64 11 23 20 52
20 66 0 13 5 33 12 45 6 12 15 38 19 57 7 35 10 46 44 145 9 28 20 66 25 85 7
33 12 47 41 133 6 17 15 50 19 72 5 22 15 58 24 80 8 22 15 48 16 57 0 24 48
58 80 58 63 0 72 77 21 178 -30 59 -33 62 -69 62 -20 0 -59 -9 -87 -19 -56
-21 -67 -44 -40 -85 13 -19 14 -29 6 -45 -6 -11 -11 -46 -11 -77 0 -54 -6 -83
-32 -159 -6 -16 -15 -48 -20 -70 -6 -22 -17 -52 -24 -67 -8 -14 -14 -39 -14
-55 -1 -15 -7 -39 -15 -53 -8 -14 -14 -35 -15 -47 0 -12 -6 -37 -14 -55 -7
-18 -18 -51 -24 -73 -5 -22 -15 -53 -20 -70 -6 -16 -18 -57 -27 -90 -9 -33
-21 -75 -27 -93 -5 -18 -11 -47 -14 -64 -2 -17 -8 -36 -14 -42 -5 -5 -10 -18
-10 -27 0 -16 -16 -78 -45 -170 -8 -26 -15 -55 -15 -65 0 -10 -4 -31 -9 -48
-5 -17 -14 -53 -21 -80 -8 -36 -23 -63 -54 -96 -24 -26 -51 -60 -59 -76 -21
-41 -46 -61 -97 -79 -43 -15 -44 -15 -70 10 -21 22 -25 34 -24 83 2 59 11 126
21 152 4 8 7 26 8 40 2 14 8 50 14 80 15 68 30 147 36 180 7 44 25 134 35 180
20 89 31 145 35 175 21 173 31 204 85 283 72 103 121 163 206 247 59 57 75 80
88 124 33 112 16 159 -94 263 l-81 76 6 49 c4 26 11 73 17 103 35 184 36 194
42 322 7 118 0 149 -39 174 -26 17 -27 16 -52 -9 -24 -24 -26 -30 -22 -104 6
-119 1 -244 -11 -258 -5 -7 -10 -23 -9 -36 1 -33 -11 -151 -16 -166 -2 -7 -13
-13 -23 -13 -22 0 -67 44 -58 58 7 12 9 269 2 337 -25 251 -141 394 -336 410
-38 4 -67 0 -95 -12z m185 -97 c50 -18 88 -87 126 -233 34 -129 54 -353 34
-378 -14 -16 -56 -20 -64 -6 -3 5 -22 12 -42 16 -20 3 -44 11 -53 16 -9 5 -47
23 -86 40 -122 53 -240 135 -257 178 -24 58 -28 110 -12 153 21 60 123 163
199 199 65 31 100 35 155 15z m298 -841 c4 -9 4 -41 0 -73 -5 -31 -8 -66 -9
-77 0 -27 -33 -70 -48 -61 -13 8 -10 193 3 214 10 17 43 15 54 -3z m176 -79
c44 -75 37 -115 -37 -220 -34 -49 -72 -95 -84 -103 -21 -14 -23 -13 -33 9 -11
23 -8 48 20 188 7 30 15 74 19 97 10 53 26 73 61 73 23 0 33 -9 54 -44z m-354
-735 c0 -33 -4 -62 -9 -65 -4 -3 -11 -25 -15 -48 -3 -24 -10 -65 -16 -93 -6
-27 -18 -86 -26 -130 -8 -44 -19 -100 -24 -125 -5 -25 -16 -81 -24 -125 -8
-44 -19 -107 -26 -140 -11 -57 -14 -83 -18 -140 -1 -17 -8 -25 -21 -25 -38 0
-316 151 -387 209 -17 14 -52 42 -77 61 -54 41 -67 66 -67 123 0 50 25 95 72
129 51 38 266 190 301 214 18 12 88 65 157 117 85 65 134 96 153 96 26 1 27 0
27 -58z"/>
<path d="M3212 2258 c-21 -28 -42 -78 -42 -105 0 -15 -7 -37 -15 -47 -8 -11
-15 -34 -15 -51 0 -17 -6 -40 -14 -51 -8 -11 -17 -37 -20 -58 -3 -21 -17 -57
-31 -80 -14 -24 -25 -54 -25 -67 0 -14 -7 -35 -15 -47 -9 -12 -33 -57 -54
-100 -48 -96 -106 -171 -154 -197 -35 -19 -37 -19 -56 0 -12 10 -21 21 -21 25
0 4 18 34 40 66 52 76 54 117 8 161 -40 39 -112 72 -155 73 -79 0 -237 -56
-316 -112 -18 -13 -48 -31 -67 -42 -19 -10 -78 -47 -131 -82 -99 -66 -119 -73
-137 -51 -8 9 -3 26 19 64 44 76 80 103 139 103 65 0 77 16 51 67 -24 49 -35
58 -89 74 -48 14 -93 4 -144 -34 -38 -28 -113 -127 -142 -186 -22 -46 -23 -54
-12 -117 10 -63 14 -70 52 -97 22 -16 59 -31 82 -34 36 -5 53 1 136 47 53 29
119 75 147 101 29 27 93 69 143 94 50 26 108 57 128 69 20 12 69 30 108 40
l72 19 22 -24 c19 -20 22 -32 19 -70 -5 -53 -52 -119 -84 -119 -25 0 -74 25
-120 61 -20 16 -43 29 -51 29 -22 0 -58 -44 -58 -71 0 -52 36 -81 150 -119 36
-12 84 -32 107 -46 45 -26 120 -32 168 -14 15 6 75 55 134 110 61 58 115 100
126 100 11 0 31 -8 45 -17 61 -43 175 -94 237 -107 50 -10 100 -12 188 -6 128
8 174 19 192 49 10 15 6 24 -18 54 -48 58 -83 64 -187 30 -48 -15 -107 -28
-132 -27 -63 1 -154 46 -181 90 -11 19 -25 34 -30 34 -5 0 -14 11 -20 23 -12
26 3 82 40 155 10 20 22 55 26 77 4 22 10 45 15 50 10 13 19 70 26 163 8 92
-14 162 -51 162 -12 0 -27 -6 -33 -12z"/>
<path d="M1153 2214 c-102 -50 -243 -244 -279 -382 -33 -127 -6 -253 74 -335
57 -59 79 -67 187 -67 85 0 102 3 153 29 86 43 179 72 207 65 23 -6 25 -11 25
-64 0 -33 -4 -62 -10 -65 -5 -3 -10 -19 -10 -35 0 -16 -5 -41 -11 -57 -7 -15
-13 -37 -14 -48 0 -11 -7 -40 -14 -65 -28 -98 -31 -117 -35 -176 -2 -34 -6
-66 -9 -71 -12 -19 24 -54 51 -51 31 4 40 30 48 133 3 39 9 75 13 80 5 6 11
25 15 44 3 19 20 56 37 82 16 26 33 65 36 86 3 21 10 43 15 50 14 18 14 212
-1 255 -10 30 -20 40 -58 54 -43 17 -47 17 -92 0 -126 -49 -148 -56 -174 -56
-16 0 -37 5 -48 11 -31 16 -73 2 -122 -42 -54 -47 -83 -49 -121 -10 -45 47
-48 86 -18 241 22 116 121 240 191 240 45 0 57 -30 41 -103 -6 -30 -18 -61
-26 -67 -15 -13 -20 -60 -6 -60 17 0 90 55 117 88 36 43 57 114 48 166 -10 65
-95 156 -146 156 -7 0 -36 -12 -64 -26z"/>
<path d="M6362 1899 c-113 -65 -274 -256 -329 -392 -14 -34 -29 -66 -33 -72
-9 -12 -28 -89 -41 -170 -5 -33 -7 -105 -4 -160 4 -87 9 -109 37 -164 27 -54
43 -71 92 -103 32 -21 68 -38 78 -38 56 0 142 60 254 178 66 68 73 73 94 62
12 -7 29 -29 38 -51 12 -32 23 -41 61 -55 25 -8 61 -22 79 -30 43 -19 86 -18
125 2 42 22 166 115 230 174 61 55 87 70 121 70 37 0 50 -32 48 -125 -3 -122
13 -179 62 -221 56 -48 78 -45 165 26 42 34 84 60 97 60 12 0 42 -16 66 -35
24 -19 62 -44 86 -56 49 -23 78 -18 134 25 30 22 74 42 151 66 57 18 110 -6
165 -74 16 -20 163 -22 240 -5 46 11 53 10 97 -15 56 -31 86 -33 109 -7 24 26
17 51 -19 71 -16 9 -37 29 -45 43 -14 26 -13 31 19 91 28 52 32 70 27 100 -10
54 -37 106 -81 159 -47 57 -95 87 -136 87 -47 0 -112 -51 -159 -127 -39 -61
-43 -74 -44 -133 -1 -59 -3 -65 -23 -68 -13 -2 -37 8 -55 21 -54 40 -69 41
-139 4 -36 -19 -78 -37 -95 -41 -18 -4 -46 -18 -65 -32 -41 -30 -60 -30 -115
-2 -41 20 -44 24 -44 63 0 22 5 46 12 53 15 15 -3 56 -32 72 -19 10 -25 7 -53
-26 -56 -66 -141 -143 -176 -160 -30 -14 -35 -14 -48 -1 -12 12 -14 25 -8 54
5 21 7 43 5 48 -8 28 -21 85 -30 130 -13 63 -47 132 -71 145 -22 12 -62 -5
-94 -40 -11 -12 -33 -29 -49 -37 -16 -8 -61 -41 -101 -74 -39 -32 -76 -59 -81
-59 -5 0 -21 -11 -36 -24 -41 -39 -99 -66 -140 -66 -29 0 -41 6 -56 28 -30 42
-54 147 -52 227 4 151 0 282 -11 325 -6 25 -9 81 -6 125 5 74 4 82 -20 113
-24 33 -97 72 -131 72 -9 0 -41 -14 -70 -31z m130 -126 c3 -15 4 -53 2 -83 -2
-30 -4 -91 -6 -135 -2 -70 -6 -86 -33 -127 -16 -25 -43 -69 -60 -98 -16 -29
-47 -78 -68 -110 -35 -55 -41 -90 -14 -90 6 0 43 32 83 70 39 39 77 70 82 70
23 0 21 -39 -3 -88 -14 -27 -25 -54 -25 -59 0 -14 -102 -109 -150 -139 -70
-44 -112 -64 -135 -64 -36 0 -82 37 -105 84 -18 38 -21 55 -15 94 4 26 9 56
11 67 2 11 7 45 12 75 6 30 8 67 5 81 -13 72 185 373 295 448 31 21 64 40 72
43 24 8 47 -9 52 -39z"/>
</g>
</svg>
