<?xml version="1.0" encoding="UTF-8" standalone="no"?>
<!-- Created with Inkscape (http://www.inkscape.org/) -->

<svg
   xmlns:dc="http://purl.org/dc/elements/1.1/"
   xmlns:cc="http://creativecommons.org/ns#"
   xmlns:rdf="http://www.w3.org/1999/02/22-rdf-syntax-ns#"
   xmlns:svg="http://www.w3.org/2000/svg"
   xmlns="http://www.w3.org/2000/svg"
   xmlns:sodipodi="http://sodipodi.sourceforge.net/DTD/sodipodi-0.dtd"
   xmlns:inkscape="http://www.inkscape.org/namespaces/inkscape"
   id="svg2985"
   version="1.1"
   inkscape:version="0.48.1 "
   width="298"
   height="258"
   sodipodi:docname="Bach Jr.jpg">
  <metadata
     id="metadata2991">
    <rdf:RDF>
      <cc:Work
         rdf:about="">
        <dc:format>image/svg+xml</dc:format>
        <dc:type
           rdf:resource="http://purl.org/dc/dcmitype/StillImage" />
        <dc:title></dc:title>
      </cc:Work>
    </rdf:RDF>
  </metadata>
  <defs
     id="defs2989" />
  <sodipodi:namedview
     pagecolor="#ffffff"
     bordercolor="#666666"
     borderopacity="1"
     objecttolerance="10"
     gridtolerance="10"
     guidetolerance="10"
     inkscape:pageopacity="0"
     inkscape:pageshadow="2"
     inkscape:window-width="1366"
     inkscape:window-height="706"
     id="namedview2987"
     showgrid="false"
     inkscape:zoom="1.127907"
     inkscape:cx="149"
     inkscape:cy="129"
     inkscape:window-x="0"
     inkscape:window-y="0"
     inkscape:window-maximized="1"
     inkscape:current-layer="svg2985" />
  <path
     style="fill:#000000"
     d="m 81.494167,238.99056 c -0.343128,-0.55519 0.546431,-3.93472 1.976797,-7.51008 4.685255,-11.71129 5.967351,-25.12438 2.376038,-24.85776 -2.360645,0.17526 -16.812066,9.64891 -16.831104,11.03366 -0.0087,0.63601 -0.803398,0.95518 -1.765898,0.70926 -1.017488,-0.25996 -3.318627,0.91146 -5.497511,2.79858 l -3.74751,3.2457 3.24751,3.54504 L 64.5,231.5 l -3.57695,-3.27844 -3.576951,-3.27844 -6.423049,2.96098 c -7.96325,3.67099 -11.252476,4.20516 -11.710948,1.90185 -0.232443,-1.16776 1.313239,-2.62677 4.975349,-4.69635 2.921902,-1.65127 5.987549,-3.41655 6.812549,-3.92285 1.230898,-0.7554 0.683031,-1.79658 -3.053863,-5.80365 C 33.515371,199.90901 21.454575,172.53229 15.323822,141.33393 12.768112,128.32835 12.605063,125.85334 12.60081,100 12.59656,74.165946 12.753063,71.773042 15.184233,60.5 16.607604,53.9 18.748576,45.931733 19.941949,42.792739 22.780542,35.32623 30.636936,23.383597 35.527353,19.101113 51.699429,4.9394023 73.45033,8.6187129 93.5,28.907575 99.66798,35.149138 107.36186,46.605479 106.41477,48.137913 106.12173,48.612061 106.2816,49 106.77005,49 c 1.2333,0 5.19798,8.855805 5.59615,12.5 0.18029,1.65 1.25314,5.7 2.38412,9 2.8469,8.306702 4.77985,14.994908 6.28594,21.75 0.7051,3.1625 1.64627,5.75 2.09149,5.75 0.44521,0 0.55046,0.675 0.23388,1.5 -0.31659,0.825 -0.2433,2.2875 0.16286,3.25 0.40616,0.9625 0.90721,3.04861 1.11344,4.63579 0.20623,1.58719 1.02882,4.81168 1.82798,7.16555 4.29701,12.65653 4.67558,57.40206 0.60366,71.35061 -1.9257,6.5966 -9.74268,21.75828 -10.71613,20.78483 -0.20864,-0.20864 0.78219,-3.00578 2.20184,-6.21586 2.7626,-6.24674 7.3612,-22.34739 7.56051,-26.47092 0.11301,-2.33811 0.17397,-2.30573 0.94133,0.5 0.67783,2.47836 0.78767,2.10349 0.63169,-2.15596 -0.10385,-2.83578 0.12061,-4.96407 0.49879,-4.72955 1.75696,1.08957 -0.40326,-31.12158 -3.32735,-49.61449 -2.32383,-14.69661 -8.59024,-40.266137 -12.74674,-52.011911 -1.61382,-4.560464 -2.67308,-8.972248 -2.35392,-9.803966 0.35188,-0.916993 0.16151,-1.253392 -0.48367,-0.854653 -0.98826,0.610783 -4.84985,-6.836594 -4.44859,-8.57947 0.095,-0.4125 -0.30389,-0.75 -0.88635,-0.75 -0.58246,0 -0.7809,-0.45 -0.44098,-1 0.33992,-0.55 0.18424,-1 -0.34596,-1 -0.5302,0 -2.14208,-2.010243 -3.581954,-4.467207 C 94.119942,30.229413 76.888034,16.398521 67.632111,13.896726 60.558343,11.984749 49.234812,13.203107 43.113341,16.534829 29.876609,23.739161 20.719067,40.077116 16.508769,64 c -2.257237,12.825604 -3.099476,43.65192 -1.58726,58.09442 4.047185,38.65283 16.543948,71.30687 36.464042,95.28053 l 2.388842,2.87495 5.362803,-2.59935 c 5.917888,-2.86839 5.933785,-2.87783 17.474851,-10.37847 8.692674,-5.64943 11.711738,-6.40412 13.352769,-3.33782 1.484185,2.77322 1.276007,13.70149 -0.382829,20.09647 -0.779907,3.00662 -1.284006,5.60058 -1.120219,5.76437 0.163787,0.16379 4.69893,-4.4087 10.078096,-10.16108 14.122366,-15.10219 16.257186,-15.57337 19.536626,-4.31203 1.14968,3.94791 2.26075,7.73292 2.46906,8.41115 0.49556,1.61351 3.03946,0.64607 7.57488,-2.88069 3.69845,-2.87593 9.36762,-11.02632 14.50437,-20.85245 1.58136,-3.025 3.5502,-5.5 4.3752,-5.5 2.02703,0 4.75871,5.8627 6.09153,13.07355 0.60248,3.25955 1.2891,6.55376 1.52583,7.32048 0.64232,2.08036 8.5591,-8.60708 15.04958,-20.31653 8.95352,-16.15299 14.35615,-24.54652 16.85265,-26.18229 2.08763,-1.36787 2.63472,-1.36677 5.29832,0.0106 1.63366,0.8448 4.93045,4.3291 7.32619,7.74289 2.39575,3.41378 6.26593,8.20861 8.60042,10.65517 3.73654,3.91593 4.61613,4.37397 7.34961,3.82727 1.7078,-0.34156 4.44479,-1.7483 6.0822,-3.12609 1.63742,-1.37779 3.37637,-2.50508 3.86434,-2.50508 0.48798,0 2.03317,-1.6875 3.43376,-3.75 4.67154,-6.87925 17.92678,-21.25 19.6005,-21.25 0.90844,0 4.68271,2.23745 8.38728,4.9721 l 6.73557,4.9721 3.57401,-1.49331 c 3.89684,-1.62821 9.8083,-6.17392 17.97821,-13.82464 9.45587,-8.85496 4.81547,-1.41057 -6.67115,10.70221 -8.81594,9.29651 -13.47344,9.93532 -23.08614,3.1664 l -6.39786,-4.50513 -3.90375,3.75513 c -2.14706,2.06533 -7.44067,8.09653 -11.76358,13.40266 -8.56074,10.50786 -13.51495,14.2889 -18.53592,14.14657 -4.2263,-0.1198 -7.20569,-2.4465 -12.53781,-9.79117 -2.39458,-3.2984 -6.07989,-7.8906 -8.18958,-10.2049 -3.36764,-3.69427 -4.07553,-4.06077 -5.80019,-3.00292 -2.24107,1.37459 -9.47613,12.44106 -15.82476,24.2049 -5.67993,10.52478 -10.6802,18.24761 -14.4061,22.25 -4.98407,5.35391 -5.63918,4.69594 -7.2184,-7.25 -0.36354,-2.75 -1.30535,-6.575 -2.09292,-8.5 l -1.43193,-3.5 -4.99639,8.69905 c -8.11018,14.12039 -17.50678,23.03779 -22.32677,21.18819 -0.84977,-0.32609 -2.02671,-2.45912 -2.61541,-4.74006 -1.83076,-7.09327 -1.98709,-7.44692 -3.55836,-8.04987 -1.00761,-0.38666 -1.31337,-1.27277 -0.89454,-2.59238 1.41152,-4.44731 -2.44166,-1.42907 -15.313254,11.99507 -7.383064,7.7 -13.793518,14 -14.245453,14 -0.451934,0 -1.102439,-0.45425 -1.445566,-1.00944 z M 126.66228,178.75 c -0.27741,-0.6875 -0.50439,-0.125 -0.50439,1.25 0,1.375 0.22698,1.9375 0.50439,1.25 0.27741,-0.6875 0.27741,-1.8125 0,-2.5 z"
     id="path2995"
     inkscape:connector-curvature="0" />
</svg>
