<?xml version="1.0" encoding="utf-8"?>
<!-- Generator: Adobe Illustrator 23.0.1, SVG Export Plug-In . SVG Version: 6.00 Build 0)  -->
<svg version="1.1" id="Layer_1" xmlns="http://www.w3.org/2000/svg" xmlns:xlink="http://www.w3.org/1999/xlink" x="0px" y="0px"
	 viewBox="0 0 273.4 146.2" style="enable-background:new 0 0 273.4 146.2;" xml:space="preserve">
<g>
	<g>
		<path d="M119.2,31.2c-0.1-3.2-2-5.5-2.3-8.2c-0.1-1-1.1-2.3,0.4-2.8c1.6-0.6,1.9,1,2.3,2.1c0.9,2.4,1.7,4.7,2.5,7.1
			c0.3,0.9,0.5,1.9,1.8,1.9c2.6,0,5.3,0.2,7.9,0.2c1.4,0,1-1.1,0.9-1.8c-0.3-1.9-0.7-3.8-1-5.7c-0.2-1-0.3-2,1-2.2
			c1.1-0.2,1.4,0.7,1.6,1.6c0.5,2.1,1,4.2,1.4,6.3c0.3,1.6,0.8,2.5,2.7,2.7c2.3,0.3,4.6,1.2,6.9,1.7c1.5,0.4,2.6,1.2,2.1,2.7
			c-0.6,1.8-1.9,0.6-3,0.3c-2.3-0.7-4.5-1.6-7.4-1.6c0.9,3.6,2.5,6.6,3.9,9.7c1.3,2.8,2.8,5.5,4.3,8.3c0.3,0.6,0.7,1,0.1,1.6
			c-0.7,0.7-1.4,0.2-1.9-0.3c-1.2-1.2-1.9-2.7-2.7-4.2c-1-1.9-1.9-3.8-3.2-6.5c-0.6,3.4-0.2,6.3-1.3,8.8c-0.6,1.3-0.5,3.1-2.1,3.5
			c-1.8,0.5-2.7-1.3-3.6-2.5c-1.4-1.9-2.5-4-4-6.5c-0.4,4.3,0.1,8.6-4.5,10.1c-3,1-4.5-1.5-6.2-3.8c-1.3,1.2-2.4,2.8-4.3,2.5
			c-1.9-0.3-3.2-1.6-4.6-2.6c-1,0-1,1-1.3,1.5c-1.5,2.2-3.2,2.6-5.5,1.2c-1.4-0.9-2.7-2-3.7-3.4c-0.7-0.9-1.2-2.1-2.4-2.6
			c-0.8,1.6,0.1,2.8,1,3.9c5.2,6.2,8.5,13.5,11.9,20.8c2.4,5.2,5.2,10.2,7.7,15.4c3.8,8.1,7.6,16.2,10.7,24.6c2.4,6.3,4,13,7.8,18.7
			c0.8,1.2,1.7,2.3,2.9,3.2c3.3,2.7,4.6,2.8,8.3,0.7c-0.7,3.4-2.5,4.4-5.6,3.5c-4.8-1.4-7.5-5.2-9.3-9.4c-3.2-7.4-5.8-14.9-8.7-22.4
			c-4.5-11.4-10.3-22.1-15.5-33.2c-2.9-6.3-6.1-12.5-10.1-18.2c-1-1.4-1.8-2.9-4.2-2.5c-1.2,0.2-2.4-0.9-3.4-1.9
			c-1.1-1.2-2.2-2.5-3.3-3.7c-4.4,4.8-3.6,10.4-3.2,15.6c0.7,7.9,2.4,15.6,5.5,22.9c3.6,8.5,8.3,16.2,15.7,22c1.3,1,2.6,2.1,4.4,2.4
			c1.7,0.3,2.6,1.4,1.8,3.1c-0.9,1.8-2,0.5-3,0c-5.5-2.7-9.3-7.1-12.7-11.9c-6.1-8.7-9.9-18.2-11.6-28.7c-1.2-7-1.2-14-1.1-21
			c0-0.9,0.1-1.6-0.7-2.3c-1.9-1.7-2.9-4.1-4.5-6.6c-0.6,2.1-0.4,3.9-1.1,5.5c-1.2,2.8-2.8,3.5-5.7,2.7c-3-0.8-4.9-3.1-6.7-5.2
			c-3.4-4-6.5-8.3-8.9-13c-1.3-2.6-2.2-5.3-1.9-8.3c0.3-2.9,1.8-3.6,4.1-2c5,3.6,8.1,8.7,10.3,14.4c0.3,0.9,0.2,1.7-0.8,2.1
			c-0.9,0.4-1.9,0-2-0.9c-0.9-4.2-4.9-6.7-6-10.8c-0.3-1.1-1.5-1.5-2.3-2.3c-1.4,1.3-0.8,2.8-0.3,4.1c2.7,6.9,6.9,12.9,12.4,17.8
			c3.2,2.8,5.3,2.1,6.6-1.9c0.9-2.8,1.3-5.4-0.1-8.3c-1.5-3.3-2.4-6.8-1.8-10.5c0.4-2.6,1.2-3,3.2-1.3c3.2,2.7,6,5.7,7.3,9.8
			c0.1,0.2,0.2,0.4,0.3,0.7c1.2,5.3,3.5,9.6,9.6,11c-0.6-3.3-1.5-6.7-3.1-9.8c-0.6-1.3-1.4-2.5-2-3.8c-0.5-1-1.5-2.4-0.1-3.1
			c1.4-0.8,2,0.7,2.6,1.8c1.6,3.3,3.2,6.7,4.9,10c1.4,2.8,3,5.5,5.2,7.7c1.2,1.2,2.5,3.2,4.5,1.6c1.7-1.3,1.7-3,0.7-5.1
			c-2.8-5.7-5.1-11.6-7.2-17.6c-0.4-1.2-0.8-2.5-1.1-3.8c-0.1-0.6-0.1-1.3,0.5-1.6c0.7-0.4,1.4-0.1,1.9,0.6c0.5,0.7,1,1.4,1.4,2.1
			c3.4,6.4,6.3,12.9,7.6,20.1c0.3,1.6,1.1,2.9,2.1,4.1c0.9,1,2.1,1.9,3.4,0.9c1.2-0.9,2-2.1,1.3-3.7c-1-2.4-1.9-4.9-2.9-7.4
			c-0.6-1.5-1.1-2.9-1.3-4.5c-0.7-4.9-0.2-5.6,4.7-5.8C115.8,31.2,117.4,31.2,119.2,31.2z M112.1,34.1c2.5,5,4.5,9.6,4.4,14.9
			c0,1.1,0.5,2.1,1.1,3c0.9,1.4,1.8,3.2,3.7,2.7c1.9-0.4,2.3-2.3,2.6-3.9c0.5-3.7,0-7.4-1-11c-1.6-5.6-1.6-5.6-7.5-5.8
			C114.5,34.1,113.6,34.1,112.1,34.1z M132.6,52.4c2.2-3.5,2.3-4,2.2-9.6c-0.1-9.1,0.6-7.8-8.3-8.2c-2.9-0.1-3.1,0.2-2.1,3.1
			C126.5,42.8,129.2,47.6,132.6,52.4z M80.4,48.6c1.1-2.4,0.5-4.3-0.7-5.8c-2.3-2.8-3.4-6.2-4.9-9.5c-0.3-0.7-0.3-1.7-1.8-1.8
			C74.7,37.6,76.1,43.5,80.4,48.6z"/>
		<path d="M173.9,85.1c0.1,2,0.9,3.6,1.3,5.3c0.3,1.1,0.7,2.6-0.7,3.2c-1.3,0.6-1.8-0.8-2.3-1.7c-0.4-0.6-0.7-1.2-1.4-2.2
			c-1.4,3.1-4.1,3.2-6,1.8c-2.4-1.7-3.8-0.2-5.2,0.8c-3.1,2-4,2.2-6.8-0.2c-2.9-2.5-4.9-5.9-7-9.1c-0.3-0.5-0.5-1.1-1.4-1.4
			c0.9,3.7,1.8,7.2,2.8,10.7c0.3,1.2,0.9,2.5-0.6,3.1c-1.6,0.7-2-0.9-2.4-1.9c-1.2-2.7-2.5-5.4-4-8c-4.2,6.4-6.4,6.6-13.9,1.3
			c0,1.2,0,2.3,0,3.4c0,0.9-0.1,1.7-1,2.2c-1,0.5-1.6-0.2-2.2-0.8c-1.9-1.6-3-3.8-3.9-5.9c-1.6-3.5-2.9-7.1-2.4-11.1
			c0.2-1.2,0.1-2.9,1.8-3.1c1.5-0.2,2.3,1.1,3,2.3c0.3,0.5,0.6,1.1,0.7,1.7c0.3,1.4,1.8,3.3-0.1,4.1c-1.5,0.6-1.1-2-2.3-3
			c-0.5,2.7,0.7,4.7,1.6,6.9c1.5-3,1.8-3.1,4.1-1.2c1.9,1.5,3.6,3.2,5.7,4.3c3,1.6,5,0.8,6.1-2.5c0.7-2.1,0.4-4-0.6-5.9
			c-1.5-2.9-3-5.7-4.4-8.6c-0.4-0.8-0.9-1.7-1-2.7c-0.1-1-1.5-2.4,0.1-3.1c1.7-0.8,2.2,0.8,2.8,2c0.7,1.3,1.4,2.5,2,3.8
			c0.5,1.1,0.9,2.1,2.6,1.3c1.2-0.6,1.8,0.7,2.5,1.5c3.6,3.8,5.3,8.8,8.4,12.9c1.3,1.7,2.7,3.4,4.4,4.7c0.8,0.6,1.8,0.8,2.7,0.2
			c1.1-0.7,0.4-1.7,0.1-2.6c-0.8-2.3-1.5-4.6-2.4-6.8c-0.6-1.5-0.5-2.7,0.2-4.1c0.5-0.9,0.6-2.2,2-2.2c1.3,0.1,1.7,1.3,2,2.3
			c0.6,1.6,1.2,3.2,1.4,4.8c0.5,3.4,2.8,5.2,5.4,6.8c1.5,0.9,2.3,0.3,2.2-1.3c-0.1-1.3-0.6-2.5-1.2-3.7c-0.8-1.4-1.4-2.8-2.1-4.2
			c-0.3-0.6-0.3-1.2,0.3-1.6c0.7-0.6,1.4-0.2,1.9,0.4c0.8,0.9,1.5,1.9,2.5,3.1c0.1-2.3-1-3.9-1.6-5.6c-0.3-0.8-0.6-1.7,0.5-2.2
			c0.9-0.4,1.3,0.4,1.7,0.9c2.1,2.3,3.6,5.1,5.2,7.8c1.7,2.9,3.6,5.7,6.4,7.7c0.9,0.7,2,1.8,3.2,1c1.1-0.7,0.8-2.2,0.6-3.4
			c-0.7-3.3-1.9-6.4-3.3-9.5c-0.5-1-0.9-2-1.3-3c-0.3-0.7-0.4-1.4,0.5-1.8c0.8-0.3,1.4,0.1,1.7,0.8c1.5,3,3.1,6,4.5,9
			c1.5,3.1,3.3,6.1,5.7,8.8c1.4-5.8,1-11.6,0.8-17.6c2.8,0.8,3.5,3.3,4.4,5.4c1.4,3.3,2.8,6.6,4.7,9.7c0.7,1.1,1.5,2.2,2.9,2.6
			c0.8,0.2,1.7,0.4,2.4-0.2c0.6-0.6,0.1-1.3-0.2-2c-1-2.3-1.8-4.7-2-7.2c-0.1-1.1-0.2-2.2,0.2-3.2c0.4-1,1.3-1,2.1-0.9
			c0.9,0.1,1,0.8,0.8,1.6c-0.6,2.4,0.1,4.7,1.1,7.3c1.4-1.5,1.1-3,1.1-4.5c0-1.2-0.7-3.1,0.8-3.5c1.8-0.5,2.2,1.5,2.8,2.7
			c1.7,3.3,3.3,6.6,5.4,9.9c1.9-1.1,2.5-3,3.5-4.6c2.5-3.9,4-4.6,8.3-2.8c3.7,1.6,7.4,3.5,11,5.2c0.9,0.4,1.6,1.1,2.7,0.9
			c0.9-0.1,1.7,0,1.9,1.1c0.1,1,0.1,2-0.7,2.7c-0.8,0.7-1.8,0.6-2.6,0c-3.4-2.3-7.2-3.9-10.7-5.8c-4.9-2.7-5.6-2.5-8.5,2.2
			c-0.6,1-1.3,2-2,3c-2.1,2.9-3.8,2.9-5.6-0.4c-0.9-1.5-1.5-3.2-2.5-5.5c-0.3,2.2-0.4,3.8-0.7,5.3c-0.3,1.6-1.5,2.3-2.9,1.4
			c-1-0.7-1.6-0.8-2.8-0.3c-3.1,1.3-5.5,0.5-7.3-2.6c-1.8-3-3.3-6.1-5-9.4c-0.8,1.2-0.3,2.3-0.3,3.4c0.1,3.2,0.2,6.5-1.1,9.6
			c-0.9,2.2-1.9,2.3-3.3,0.5c-1.2-1.6-2.2-3.4-3.2-5.1c-0.2,0.1-0.6,0.1-0.6,0.3c-1.3,4.3-2.5,4.8-6.3,2.5
			C178.4,91,176.5,87.9,173.9,85.1z M138.7,73.7c0.3,2.4,1,4.6,2.4,6.5C140.8,77.9,140,75.7,138.7,73.7z"/>
		<path d="M30.3,68.3c1.6,16.4,9.2,30.5,16.9,44.5c3.4,6.2,8.4,11.3,14.1,15.6c4,3.1,8.6,4.3,13.5,2.4c5.2-2.1,6.9-6.7,8-11.6
			c1.6-6.9,0.6-13.6-2.2-20c-3.2-7.3-6.4-14.6-11.1-20.9c-6.2-8.4-13.7-15.7-21.9-22.2c-10.1-8-20.7-15.5-30.4-24.1
			c-2.9-2.5-5.7-5.2-8-8.2c-0.5-0.7-1-1.4-1.4-2.1C5,17,5.2,11.6,8.3,8.7c3.6-3.4,9.5-3.8,14-1c2.3,1.5,4.4,3.3,6.1,5.6
			c4.1,5.7,7,12,9,18.7c0.2,0.6,0.2,1.2,0.3,1.8c0,0.6,0,1.3-0.6,1.5c-0.9,0.3-1.4-0.3-1.7-0.9c-0.3-0.5-0.3-1.1-0.6-1.7
			c-2-5.2-3.2-10.8-6.3-15.6c-2.4-3.7-5.4-6.7-9.7-8.1c-3.3-1.1-6.1-0.3-8.4,2.3c-2.3,2.6-2.2,5.5-0.7,8.3
			c2.6,4.8,6.6,8.5,10.5,12.2c9.3,9,19.9,16.5,30.1,24.4C63.9,66.9,74.5,80,81.3,96c2.5,5.8,4.6,11.8,4.5,18.3
			c-0.1,4.9-1,9.8-3.8,14c-4,6.3-12.1,8.2-18.6,4.5c-8.1-4.6-13.4-11.8-18.4-19.3c-6.9-10.2-10.4-21.9-14.3-33.5
			C29.6,76.3,29.2,72.3,30.3,68.3z"/>
	</g>
</g>
</svg>
