<?xml version="1.0" encoding="UTF-8"?>
<svg width="800" height="480" version="1.1" viewBox="0 0 800 480" xmlns="http://www.w3.org/2000/svg">
 <g stroke-width="2.0233">
  <path d="m502.56 176.27-61.271 7.8837c-2.5507-0.117-5.302 0.13764-7.6031-1.1974 1.5179-3.0206-4.3637-5.2363-5.2044-1.9561-2.0554 4.8438 2.7996 10.687 7.9074 9.9425 7.4243-0.51617 14.785-1.6564 22.186-2.4126 6.5055-0.7517 13.011-1.5029 19.517-2.2544 4.3435-0.27147 8.4834 2.087 11.246 5.308 2.514 3.3625 5.0805 6.964 9.074 8.6999 4.1532 1.9237 8.866 1.598 13.326 1.7933 14.14-0.0153 28.279-0.22788 42.416-0.54753 2.6616-0.18276 5.8357-1.3736 6.5677-4.2322-2.4873-4.9061-8.8226-3.6898-13.242-2.8809l-17.391 2.5054c-7.0556 0.29747-13.863-1.8676-20.695-3.2878-4.0591-0.83322-9.8312-1.7988-10.551-6.7772 0.10316-4.2731 7.3758-4.0815 6.4334-8.7372-0.32913-1.1217-1.4869-2.1623-2.7148-1.8494zm-460.95-61.449c7.1617 0.80714 14.31 1.735 21.438 2.8057 2.3965 0.45424 4.7619 1.186 6.8601 2.454l-34.332 12.476c-5.2211 1.2722-10.225-4.9716-7.9098-9.8088 1.4251-3.6566 4.7589-6.3138 8.4117-7.5471 1.784-0.65917 3.6726-0.59646 5.5324-0.37929zm536.31-26.868c1.2013 1.3522-0.843 3.6485-2.3631 2.8057l-9.4564 1.0393c1.6968-4.6755 7.5365-4.0288 11.535-4.0782zm-157.41-7.8086c-3.8564 5.8298-7.7554 11.631-11.697 17.403 0.48658 0.76845-1.3407 1.0508-1.0353 0.15829-0.6435-4.6437 1.5205-9.2504 4.6498-12.571 2.3298-2.6306 5.4088-4.5169 8.6951-5.71zm-219.55-17.652c-1.6375 3.0331-4.0351 5.6482-6.9195 7.5358 1.3822-3.4821 3.8988-6.4923 7.0814-8.4684zm-104.37-9.2312c-15.725 0.83803-31.413 2.2463-47.104 3.5526-5.4984 0.67676-11.325 0.0688-16.46 2.5246-5.06 2.1503-4.6573 10.239 0.37623 12.209 4.606 2.9416 10.017 4.1621 14.937 6.4441l29.144 11.63c3.7177 1.8003 7.617 3.948 9.7726 7.6228 2.6853 4.1803 0.41294 9.8968-3.7603 12.13-4.2737 2.4327-9.4511 2.1875-14.221 2.1676-5.8285-0.17818-11.672-0.25541-17.474-0.87337-5.6295-0.42135-10.509-3.6686-16.038-4.4002-4.3498-0.68058-8.3453 2.4326-10.002 6.2825-2.4335 4.7037-5.7899 9.2328-6.6131 14.555-0.75706 4.7905 3.4115 8.7427 7.9582 9.1523 5.1238 0.73564 10.294-0.43282 15.316-1.3793 9.8577-2.092 19.138-6.1254 28.588-9.5139 9.1532-3.4393 18.382-6.7764 27.949-8.8837 14.113-3.3498 28.367-6.229 42.191-10.674 11.916-3.9986 23.792-8.1146 35.691-12.163 1.9875-0.53146 3.986-1.0177 5.9947-1.4621-1.5845 5.7214-3.222 11.428-4.912 17.119-6.566 10.98-13.486 21.741-20.371 32.522-1.8925 3.0746-3.434 7.0596-1.719 10.551 2.1172 0.51006 3.826-1.4236 5.906-1.5375 7.0029-2.2933 14.398-3.1701 21.746-3.1774 5.5955-0.0535 11.355-0.49246 16.787 1.1249 4.6809 1.4003 9.0476 3.6459 13.625 5.3328 9.6006 3.841 19.201 7.6821 28.802 11.523 9.5335 2.8737 19.461 4.2383 29.389 4.7223 9.5655-0.24853 19.071-2.1738 27.999-5.6097 6.7797-2.5538 13.135-6.2528 18.606-11.011 3.7311-3.1529 7.2382-6.7226 9.3592-11.187-4.7896 0.6607-8.5136 4.0111-12.225 6.8171-6.4285 5.1009-14.081 8.4997-22.001 10.523-9.4971 2.3107-19.366 2.8304-29.096 2.161-11.723-0.74864-22.929-4.6383-33.875-8.6426-10.525-3.7163-20.96-8.044-32.063-9.7203-10.54-1.5187-21.21-1.476-31.831-1.7941-0.5957 0.49935-2.2135-0.25541-1.3317-0.97216 4.4451-7.8546 8.4922-15.923 12.618-23.947 3.7418-8.1486 7.0706-16.48 10.109-24.915 1.8182-4.9283 3.9962-9.8297 7.4173-13.874 3.7884-4.8263 7.5767-9.6527 11.365-14.479 2.342-3.8324-0.71576-9.3862-5.0346-9.9402-4.4997-0.30358-7.7683 3.6481-9.9897 7.0554-3.4918 5.8072-6.2982 11.992-9.6777 17.862-2.2563 3.9973-5.6477 7.313-9.7232 9.4309-5.1238 2.8084-10.86 4.1724-16.325 6.141-11.58 3.8427-23.221 7.498-34.84 11.221-9.0659 2.5361-18.347 4.1647-27.563 6.0421l1.5253-15.273c-6.7134-6.7846-14.651-12.463-23.55-15.997-11.846-4.7175-23.836-9.0638-35.785-13.511 12.877-3.155 25.892-6.0454 39.157-6.8965 13.871-1.0801 27.797-0.66299 41.691-1.0899 4.9642 0.0382 9.7944 1.5031 14.309 3.4775 2.1144 0.39229 4.4203 2.5382 6.5163 1.3594 2.1009-2.4808-0.98677-5.7584-3.7142-5.5706-6.0351-1.798-12.126-3.5583-18.415-4.1848-6.3389-0.79536-12.754-0.85409-19.13-0.57429zm304.12-14.87c1.4817 4.8438 0.28997 10.133-2.1306 14.464-4.8908 8.0149-9.8252 16.048-15.67 23.414-1.6872 2.0748-3.6264 3.9209-5.499 5.8239 2.4233-9.1366 4.8024-18.303 8.0101-27.204 2.8066-5.4513 5.8628-10.943 10.452-15.115 1.369-0.95695 2.9334-1.5608 4.4457-2.2446zm-50.732-13.894c-7.2149 1.1958-14.11 3.7054-21.035 5.9749-10.294 3.8431-19.145 10.691-26.968 18.275-7.6932 7.4888-15.343 15.082-22.005 23.52-5.6674 7.4164-9.8296 15.98-12.1 25.036-1.0695 5.2185-1.0086 10.986 1.7595 15.695 2.5419 4.3645 7.1175 7.1826 11.91 8.4736 6.6571 1.6564 13.624 1.4066 20.39 0.63241 9.4798-1.0108 18.798-3.2708 27.791-6.4109 9.6798-3.3334 18.977-7.6504 28.36-11.722 1.724-0.75399 3.6627-1.5688 5.1613-2.424 1.3544 0.29517 0.0283 1.7635 0.29242 2.6634-0.58056 5.0782-2.5458 11.458 1.5688 15.57 3.9917 3.2436 9.4969 2.4892 14.166 1.4951 6.1526-1.198 12.054-3.3534 18.029-5.1978 4.5844-1.4614 9.437-1.4806 14.183-1.0537 4.9929 0.42135 10.098 0.57964 14.964-0.81946 4.9263-1.3029 9.7066-3.4356 14.866-3.6237 6.6482 0.14147 12.375 4.4402 19.004 4.6947 6.4344-0.13841 12.565-2.3197 18.849-3.4517 15.024-3.1303 30.162-5.6961 45.342-7.9322 24.626-3.4369 49.383-5.8094 74.059-8.8409 5.9187-1.0869 12.142-2.1589 18.041-0.3747 5.4849 1.5219 11.205 3.0423 16.935 2.1369l29.16-3.7028c14.285 0.0688 28.591 0.481 42.853-0.55976 16.411-0.98065 32.817-2.0178 49.222-3.0998l-14.649 9.2984c-2.6584 2.8785-5.1464 5.9251-7.2514 9.2351-4.0442-0.38388-5.7823 6.2922-2.0707 7.935 2.8084 2.381 6.4106 3.8207 10.097 3.9438 1.4532-1.9601 0.34924-5.2445-2.0707-5.7892 2.7546-4.4759 6.4112-8.3167 10.357-11.756l18.261-8.5476c2.6031-2.6218 13.613-8.1624 13.503-12.316 0.16671-1.2852-7.777-0.76393-7.777-0.76393-6.6878-0.559-13.327 0.72799-19.973 1.2585-20.556 2.111-41.112 4.2218-61.669 6.3327-5.6633 0.18277-11.198-1.8094-15.933-4.8132-5.5022-2.6426-11.877-1.2059-17.196 1.1756-5.2809 2.0413-10.743 3.7233-16.354 4.5464-4.0044 0.65688-8.2535 1.8185-12.227 0.39153-3.2969-0.75094-4.793-5.2919-2.5916-7.8476-1.1201-2.9465-5.1923-2.2387-7.2007-0.65229-6.8976 2.6401-13.758 5.3998-20.833 7.5399-5.1141 0.99839-10.29 1.616-15.451 2.3078-0.73098-4.5795-1.5566-9.3062-4.0821-13.29-5.3578 0.34335-10.638 1.8141-15.396 4.3034-3.2159 3.8985-6.5174 7.746-10.259 11.156l-54.933 7.8955c-5.2462 0.62399-10.483-0.53759-15.522-1.8929-3.8965-0.61482-7.5506 1.5621-10.298 4.1114-2.7952 2.4379-5.0183 5.8338-8.7647 6.9178-3.0146 1.0912-6.8156 0.58805-8.8834-2.047-3.7399-3.8093-1.3608-10.286-4.9831-13.989-3.5727-1.1671-6.5474 2.3161-9.2168 4.1411-4.447 3.696-9.3723 6.7309-14.414 9.5368-3.6814 1.7876-8.5364 5.0021-12.4 1.9234-2.4566-1.7576-2.7235-5.3805-0.79035-7.6346 3.1697-4.9005 7.0551-9.3113 9.9097-14.425 2.4947-3.9792 5.0014-10.265 0.77964-13.984-2.9513-2.7984-7.4831-1.7752-10.12 0.90884-3.8986 3.7485-7.7435 7.709-10.758 12.214-2.4828 3.9742-3.4196 8.6591-3.7333 13.275-0.81516 5.5502-4.8834 10.399-10.344 11.872-4.5246 1.4375-9.0122 3.577-13.781 3.8791-4.0874-0.0306-6.7691-4.2342-6.2998-8.036 0.42113-4.0392 2.5948-7.6399 4.8431-10.923 5.1787-7.0731 11.107-13.553 16.538-20.429 3.256-4.1678 6.6413-8.2839 9.3595-12.829 2.7048-4.905 4.2608-10.319 6.086-15.586 1.5082-4.8159 2.4671-11.615-2.3592-14.882-5.0674-3.1162-10.853 0.24088-14.657 3.7857-4.8587 4.415-8.204 10.227-10.577 16.291-4.18 10.217-7.5297 20.749-11.52 31.038-2.6722 5.8979-7.3061 10.879-13.029 13.918-7.2586 4.108-14.645 7.995-22.224 11.48-5.573 1.9344-11.287 3.4094-16.973 4.9673-8.3745 1.7374-16.93 3.1818-25.512 2.5054-5.0581-0.26382-10.634-1.8293-13.631-6.2257-2.5677-3.875-2.7785-8.8391-1.8435-13.272 1.0772-5.3293 3.523-10.246 6.1844-14.941 5.1392-7.8191 11.311-14.898 17.757-21.657 6.7254-6.8964 14.286-12.924 22.099-18.535 4.0326-2.8183 8.0993-5.6886 12.72-7.4727 4.6321-1.5862 9.1998-3.8355 14.131-4.216 5.0887-0.44658 10.308 3.329 10.49 8.653 0.52558 4.6529-2.2657 9.4026-6.8048 10.824-5.25 1.5696-8.82 6.3834-9.4003 11.749-0.77774 4.2366-1.8602 9.0788 0.31529 13.076 4.2455-5.7524 8.8949-11.192 13.162-16.929 2.9402-3.5571 5.3108-7.6232 6.3672-12.15 1.4774-4.6442 2.7072-9.8257 0.85101-14.549-1.3662-3.7454-4.8762-7.0054-9.0428-6.9144-0.93481-0.078-1.8692-0.0772-2.8057-0.0459zm143.37-2.6042-0.12648 0.36782c0.18269 7e-3 0.5411-0.546 0.12648-0.36782zm-0.86147-0.70353c-0.58095 0.73106 0.23246 0.23782 0.23315-0.0788zm109.63-11.278c-6.4104 4.2203-12.268 9.5183-16.214 16.166-3.1011 4.9042-5.967 9.9504-8.8834 14.965-3.2812 6.6625-4.1846 14.141-4.9752 21.434-0.28906 3.7032 0.0635 8.0981 3.2444 10.547 5.0855-3.3974 3.1877-10.253 4.039-15.381 0.8845-6.1968 3.0696-12.119 5.4332-17.884 2.5824-5.7993 6.3283-10.96 9.9856-16.113 2.5057-4.2033 7.1211-7.3097 8.133-12.268-0.0767-0.31964 0.01-1.9317-0.76271-1.4661z"/>
  <path d="m393.94 220.66c-0.61443 1.1302 0.92039-0.40453 0 0z"/>
  <path d="m393.37 221.57 0.79429 0.23323c0.47779-0.4397-0.82093-0.22176-0.79429-0.23323z"/>
  <line x1="11.03" x2="788.98" y1="241.62" y2="241.62" stroke="#000" stroke-linecap="round"/>
  <path d="m677.35 386.17c2.9843-1.3212 11.373-5.307 8.4795-9.5964-0.94689-1.4001-4.0223-0.59876-5.1836-0.10553-1.1816 0.50012-3.0592 1.7259-2.0718 3.1867-0.25694-0.38082-0.0367-0.0229 4e-3 0.12159 0.12541 0.46723 0.0711-0.41447-0.0161 0.0688-0.0306 0.17206-0.27919 0.5827 2e-3 0.0612-0.0931 0.17435-0.21649 0.32959-0.33586 0.48558 0.46938-0.61482-0.41882 0.36247-0.62522 0.53223-0.64135 0.53606 0.61505-0.4267-0.0769 0.0688-0.20433 0.14376-0.41072 0.28141-0.62116 0.41676-0.40262 0.26306-0.81944 0.50547-1.2382 0.74482-0.28531 0.16212-1.655 0.86595-0.3864 0.22253-0.34197 0.17206-0.68991 0.34182-1.042 0.49553-0.94689 0.42059-3.3161 1.8695-2.0718 3.1887 1.1998 1.2746 3.822 0.71041 5.1836 0.10935zm-59.525 26.588c-10.679 3.7674-21.542 8.5159-30.521 15.5-3.3344 2.5938-7.741 7.4051-4.955 11.792 1.9079 3.0025 8.0425 1.1513 10.564 0.39229 11.112-3.3445 24.939-13.791 29.151-24.858 1.394-3.6682-1.0804-3.9191-4.1093-3.1058-3.6722 0.98333-4.7486 3.0733-6.0172 6.4947-3.221 8.6799-4.4876 24.008 8.1578 24.921 15.725 1.133 29.627-8.257 41.465-17.453 1.3495-1.048 2.6869-2.1123 4.1032-3.0693-5.301 3.5832-3.8442-0.89631-5.2747 4.5442-0.83156 3.1664-2.0597 6.264-2.5918 9.5074-0.95701 5.7866 0.81335 8.9489 6.9702 8.3258 7.8705-0.79919 15.257-4.8882 21.728-9.1512 5.1856-3.4173 13.111-8.6272 15.84-14.578-2.5655 0.48176-5.129 0.96306-7.6925 1.4446-2.0374 7.2716-8.2266 20.583-0.37226 26.311 9.5074 6.9317 24.919-8.253 30.568-13.7 3.7451-3.6136 0.55838-0.43741 0.0769-1.4669 0.66567 1.4224 0.57666 3.561 0.83966 5.1007 0.44712 2.6181 1.4203 4.7304 3.2413 6.6201 4.4836 4.6515 15.792 2.5776 21.259 2.1305 9.3313-0.76684 38.058-5.0056 39.715-17.439 0.0991-0.74482-7.5165-0.16594-7.8159 2.0941-1.2241 9.1857-21.776 11.591-28.453 12.417-6.2681 0.77487-16.103 2.1406-19.286-4.8235-2.7193-5.9524-0.89428-13.347-10.076-8.7911-5.738 2.8468-19.939 21.793-24.959 12.641-3.5974-6.5614 1.1472-16.077 2.958-22.539 0.41478-1.4831-6.9358-0.20877-7.6925 1.4446-2.2034 4.8012-8.3035 8.7425-12.356 11.84-2.9196 2.2337-15.191 10.932-16.975 4.7506-0.88619-3.0693 0.84573-7.0248 1.6975-9.9464 0.46938-1.6085 3.3323-7.5347 1.307-8.8357-1.8675-1.2018-6.1548 0.63547-7.7876 1.5822-9.7886 5.6752-31.122 28.405-41.186 14.039-3.2858-4.6879-1.9828-20.824 1.8695-23.31-2.0658 0.47335-4.1315 0.95091-6.1973 1.4243 5.388 1.7097-31.025 34.446-25.246 17.912 3.4294-9.8108 21.752-15.48 30.691-18.636 5.2787-1.8594 0.24073-2.5452-2.6363-1.5276zm-135.54-56.213c-5.0298 10.483-9.6672 21.165-14.037 31.939-4.7668 11.763-13.778 29.078-10.966 42.226 2.7476 12.854 23.775-2.6909 27.695-6.0172 7.7248-6.5534 14.42-14.64 19.96-23.094 2.6606-4.0587 6.6222-10.361 6.1932-15.512-0.0589-0.71652-1.0278-0.99954-1.5438-1.1816-0.0245-8e-3 -0.0466-0.0153-0.0711-0.0229-1.5782-0.55441-4.4391 0.20647-5.5276 1.481-4.0648 4.7668-5.1897 13.801-6.6323 19.646-1.742 7.0532-5.9201 20.726-1.1148 27.46 4.8801 6.8347 15.788 1.2423 20.888-2.2256 9.1958-6.2499 18.922-17.43 21.246-28.565 1.3657-6.5332-6.2155-8.5827-9.1169-3.0956-3.9697 7.5165-3.2251 22.786 1.133 29.863 5.2504 8.5322 16.91 8.0466 24.767 3.3647 12.49-7.4456 15.007-20.698 9.5579-33.655-2.3328 1.0036-4.6657 2.0092-6.9985 3.0147 15.351 6.8832 31.516 12.182 47.765 16.447 2.6626 0.6997 9.2403-3.2736 4.7304-4.4573-15.771-4.1396-31.419-9.2423-46.317-15.925-1.5013-0.6737-8.2084 0.14147-6.9985 3.0147 3.8159 9.0743 4.4714 18.671-2.7962 26.213-8.4026 8.7264-16.494 1.6753-18.434-7.5508-1.2747-6.0557-0.80121-12.751 0.56649-18.756 1.1229-2.7112-0.82347-2.8367-5.8371-0.38006 0.50379 1.3394 0.12947 2.8467-0.14972 4.1821-0.82347 3.9494-3.4598 7.6358-5.7036 10.901-3.2494 4.7244-12.554 16.88-19.367 15.915-4.4876-0.63317-2.61-12.047-2.2964-14.642 0.75468-6.2742 2.3288-12.467 4.0223-18.543 0.76279-2.7355 2.0435-9.129 3.4112-10.731-1.8432 0.494-3.6844 0.98738-5.5276 1.4811-2.5412-0.89225-1.5336-0.47794-2.436 2.6262-0.9651 3.3242-2.9297 6.3955-4.7304 9.3151-4.2974 6.9702-9.8331 13.178-15.66 18.889-1.8574 1.8209-14.258 13.766-16.605 9.1836-1.7542-3.4214-0.0283-8.9044 0.74864-12.366 4.6495-20.771 14.331-41.01 23.502-60.128 1.7056-3.5508-6.1406-2.7739-7.3202-0.312zm-212.23-10.228c61.88-2.7132 123.77-5.1938 185.68-7.2919 47.917-1.6247 95.838-2.3187 143.66-6.0759 21.449-1.6853 42.922-3.7714 64.196-7.0086 8.4047-1.2787 20.811-1.8877 27.523-7.8847 2.1366-1.91-1.8351-2.604-2.9418-2.5635-2.8306 0.10553-5.6854 1.0764-7.8017 2.9702 2.3288-2.082 0.88417-0.80531-1.0905-0.30359-2.7193 0.69358-5.4952 1.1573-8.257 1.6449-7.7936 1.3738-15.65 2.3814-23.5 3.3485-23.767 2.9277-47.674 4.7729-71.571 6.2439-43.782 2.6909-87.709 3.1198-131.54 4.6555-56.506 1.9808-113 4.2569-169.49 6.7334-3.5913 0.15753-12.698 5.8756-4.8599 5.5317zm54.017 41.552c-24.091 13.948-34.499 43.264-16.036 66.479 22.434 28.208 73.058 11.836 100.52 3.2494 7.0572-2.2074 5.127-9.7967-2.0273-7.5589-23.951 7.4881-65.775 22.406-86.719 0.41906-8.8558-9.2969-12.192-24.063-7.8098-36.067 2.0941-5.736 6.0698-10.535 10.379-14.742 1.6328-1.5943 3.482-2.9702 5.3313-4.2995 0.45523-0.32806 3.826-2.4057 1.4386-1.0238 6.9014-3.9959 0.58071-9.7279-5.0724-6.4563zm-144.29-9.2039c-5.643 6.3956-44.55 47.881-30.681 55.424 9.2929 5.0561 16.7-12.556 21.319-17.178 9.4871-9.4952 13.323-19.848 16.969-32.819-2.6161 0.28753-5.2322 0.57429-7.8483 0.86189 0.0535 13.538 4.1356 52.597 26.454 38.717 9.6247-5.9869 14.137-19.844 18.93-29.463 0.34182-0.68211 0.69588-1.3556 1.0642-2.0213 2.6606-4.9287-2.9722 5.5215-4.6596-0.702 1.3111 4.8417-0.46341 11.207-1.4345 15.962-1.7704 8.6556-5.3294 17.291-9.7502 24.935 2.4461 0.1277 4.8923 0.25923 7.3384 0.38617 7.4942-13.922 14.792-28.069 20.838-42.685 1.2564-3.0329 2.4097-6.1062 3.2655-9.2747 1.7927-6.6404-4.2812 0.91856-5.9969-0.94288 2.5007 2.7173 4.4633 5.9404 6.9338 8.7041 28.328 31.697 63.405-5.9748 80.168-30.157-2.5311 0.0788-5.0622 0.15753-7.5933 0.23706-10.655 30.124-21.248 63.581-39.705 89.916-2.1953 3.132 5.738 2.6686 7.3385 0.38617 18.667-26.634 29.437-60.69 40.214-91.167 1.1614-3.2858-6.4805-1.3697-7.5933 0.23706-10.44 15.059-31.144 45.453-53.683 36.308-8.514-3.4538-13.216-10.954-18.853-17.645-7.4335-8.8215-11.527 12.259-12.554 14.744-5.8027 14.023-12.931 27.591-20.119 40.947-1.9018 3.5347 5.9586 2.7719 7.3385 0.38618 7.1259-12.324 13.691-28.996 11.664-43.379-0.42517-3.0207-4.2995-2.7961-6.4057-1.8715-3.0167 1.3232-4.3662 4.7183-5.738 7.4699-2.7294 5.477-5.2747 11.019-8.3359 16.324-3.217 5.5761-7.9211 13.918-13.896 6.6404-6.8144-8.3035-7.3404-23.565-7.3829-33.861-0.0153-3.6804-7.1038-1.7906-7.8483 0.8619-2.7759 9.8796-5.4143 20.664-13.012 28.03-1.9282 1.8695-3.8928 3.652-5.5842 5.7481-1.0238 1.2686-1.9646 2.5595-2.8811 3.9069-1.5195 2.2337-3.4213 9.5337-3.3627 4.1032 0.11088-9.9524 10.086-20.445 15.834-27.796 4.9954-6.3855 10.234-12.603 15.597-18.683 3.1381-3.5448-4.4451-3.7471-6.349-1.5903zm-154.09-33.728c4.8255-5.1189-3.0936-9.8412-3.7896-14.992-1.3374-9.9019 15.757-21.511 22.102-27.666 1.4325-1.3899 21.083-19.249 22.12-16.176 0.83161 2.4643-0.79712 6.3369-1.4527 8.6657-7.6884 27.314-20.277 53.603-30.946 79.832-5.734 14.098-11.438 28.214-16.629 42.525-2.9014 7.994-6.6545 16.767-7.0389 25.384-0.30512 6.8468 9.6833 2.3186 12.463 0.29518 10.762-7.828 18.228-22.056 25.172-33.04 7.5387-11.925 14.62-24.144 21.443-36.488 2.5878-4.6798 8.6434-21.089 11.911-22.715-1.8311 0.29518-3.6641 0.58882-5.4952 0.88621 3.3525 1.3536-13.477 51.555-14.932 56.484-1.1087 3.7552-11.612 30.934-0.70811 28.927 12.67-2.3328 23.897-17.228 31.867-26.135 6.4502-7.2089 12.386-14.887 17.487-23.11 1.6247-2.6161 7.3485-11.142 5.6955-14.568-0.50776-1.0541-2.341-0.88621-3.2636-0.70582-9.1573 1.8027-11.984 17.938-14.252 25.212-2.4927 7.9899-10.432 33.036 0.47182 38.396 9.6409 4.7385 22.97-3.1704 31.039-7.8908 11.31-6.614 21.53-14.843 31.771-22.96 3.302-2.6181-4.524-1.9342-6.1082-0.67982-6.3713 5.0501-12.712 10.106-19.334 14.831-6.8185 4.8639-21.014 16.761-30.102 13.807-9.475-3.0794-2.8144-26.228-1.2221-32.386 1.5579-6.0233 3.6622-11.913 5.9889-17.675 0.75705-1.8736 1.5923-3.7107 2.4583-5.5357 1.8857-3.9696 3.1947-2.6343-2.0031-1.6105-1.0886-0.23476-2.177-0.46953-3.2656-0.70582 1.7845 3.7026-5.9039 14.163-7.65 16.846-5.7177 8.781-12.7 16.783-19.834 24.425-5.5397 5.9342-11.419 11.82-18.112 16.455-2.9095 2.0151 1.9909 1.218 1.4952-0.10706-0.36629-0.9792-0.17588-2.5108-0.10094-3.4517 0.31582-3.9312 1.4243-7.8503 2.3875-11.658 4.9732-19.656 12.206-38.675 16.573-58.495 0.59111-2.6728 3.7309-11.425-1.56-11.233-4.7891 0.17588-6.9014 3.5084-8.9954 7.3-14.037 25.416-27.007 51.249-44.271 74.774-3.3 4.4958-6.8529 9.3597-11.405 12.672 3.0592-2.2256 2.4118 1.3616 2.2114-1.7421-0.10706-1.6469 0.34794-3.385 0.68976-4.9833 2.3713-11.1 6.8852-21.892 10.934-32.451 14.191-37.016 33.105-73.425 43.436-111.78 0.60488-2.2418 2.2195-6.7031 0.38235-8.7608-4.4653-5.0015-15.205 1.8007-18.956 4.3157-11.073 7.4233-20.067 18.037-29.762 27.077-4.2003 3.9171-10.224 9.7684-10.454 16.063-0.13153 3.6217 6.171 12.898 4.3844 14.792-1.9464 2.0638 5.7158 1.2686 7.1624-0.26535z"/>
 </g>
</svg>
