<?xml version="1.0" encoding="UTF-8" standalone="no"?>
<svg xmlns="http://www.w3.org/2000/svg" version="1.0" width="403px" height="230px">

<path d="M 347.044,34 C 347.633,37.589 345.882,38.838 345.044,41 C 329.621,28.305 295.552,20.545 278.044,37 C 282.554,57.491 309.446,55.597 316.044,74 C 319.797,72.42 319.144,66.433 324.044,66 C 327.309,65.735 326.164,69.88 329.044,70 C 334.281,70.903 332.807,65.097 338.044,66 C 338.733,57.447 352.743,54.65 359.044,58 C 360.322,66.55 353.019,70.409 358.044,77 C 362.474,67.216 368.301,49.512 370.044,37 C 370.904,30.822 366.475,22.233 374.044,20 C 384.658,29.519 371.951,46.124 373.044,59 C 372.149,62.228 376.306,60.405 377.044,62 C 375.326,72.394 388.684,74.928 383.044,83 C 376.124,83.586 375.983,77.394 372.044,75 C 351.688,78.823 366.303,111.447 358.044,127 C 347.433,125.277 346.648,113.729 341.044,107 C 331.448,100.929 322.905,93.806 319.044,82 C 310.998,83.046 309.97,77.074 306.044,74 C 298.04,90.732 262.119,82.176 270.044,60 C 273.434,57.636 278.873,58.26 283.044,60 C 284.84,62.773 282.187,68.012 278.044,68 C 279.357,77.433 298.398,78.873 299.044,70 C 299.727,60.63 267.233,55.12 270.044,40 C 243.807,42.096 221.656,48.278 192.044,47 C 193.737,51.307 194.182,56.862 195.044,62 C 198.893,62.139 200.693,55.041 204.044,58 C 208.131,59.914 207.306,66.738 212.044,68 C 213.265,65.035 212.44,63.075 215.044,60 C 218.969,58.005 225.62,54.256 231.044,57 C 233.308,62.382 228.647,62.965 228.044,68 C 234.195,68.151 233.372,61.328 240.044,62 C 241.195,63.182 241.176,65.535 241.044,68 C 246.096,67.385 247.259,62.882 253.044,63 C 255.426,67.177 253.282,74.236 252.044,78 C 247.928,75.113 243.169,78.556 238.044,78 C 231.862,77.329 225.432,73.542 219.044,74 C 212.491,74.47 205.324,78.161 202.044,70 C 196.51,70.466 198.963,78.919 193.044,79 C 185.393,73.318 188.189,57.188 184.044,48 C 169.356,48.213 155.935,45.766 142.044,48 C 150.933,53.019 146.933,66.783 144.044,76 C 138.754,75.956 136.774,72.604 135.044,69 C 130.366,73.383 125.444,68.846 121.044,68 C 110.551,65.981 98.847,77.273 96.044,63 C 96.838,58.127 102.879,58.502 107.044,57 C 108.021,58.023 109.021,59.023 110.044,60 C 120.889,55.516 129.441,65.133 140.044,59 C 133.423,51.287 117.43,52.948 110.044,46 C 102.056,45.057 96.531,51.153 93.044,44 C 104.338,32.466 125.937,40.355 144.044,41 C 149.557,41.196 155.358,38.942 161.044,39 C 169.665,39.087 176.717,42.556 184.044,40 C 185.551,22.5 199.645,17.42 219.044,17 C 238.773,16.573 261.063,30.285 273.044,30 C 283.145,29.759 295.689,18.866 310.044,19 C 326.313,19.152 336.005,27.832 347.044,34 z M 193.044,39 C 215.922,39.544 236.664,37.954 255.044,34 C 241.706,27.562 196.381,13.846 193.044,39 z M 333.044,77 C 335.4,82.31 343.562,81.815 350.044,83 C 350.044,81 350.044,79 350.044,77 C 343.465,78.276 337.495,74.634 333.044,77 z M 353.044,109 C 353.822,102.222 351.679,98.365 352.044,92 C 345.996,89.714 337.951,89.426 332.044,87 C 335.975,97.403 347.494,100.217 353.044,109 z"/>
<path d="M 24.044,21 C 25.653,25.391 26.946,30.098 28.044,35 C 34.816,32.772 33.282,22.238 43.044,23 C 41.728,33.563 41.927,50.345 46.044,61 C 50.371,54.896 59.548,48.635 69.044,51 C 70.064,55.687 67.398,56.688 66.044,59 C 66.384,62.326 69.832,62.545 71.044,65 C 72.78,62.403 71.504,56.793 76.044,57 C 81.532,59.161 81.931,61.992 90.044,60 C 91.88,63.166 94.7,69.548 92.044,74 C 86.981,75.063 87,71.044 84.044,70 C 81.527,71.483 81.073,75.029 76.044,74 C 73.935,72.442 72.418,70.292 73.044,66 C 68.151,69.804 53.124,75.464 49.044,68 C 45.329,67.618 46.43,72.052 42.044,71 C 36.959,64.085 36.451,52.593 34.044,43 C 30.418,44.369 28.296,49.158 23.044,46 C 22.066,55.653 29.413,64.199 25.044,71 C 23.377,71 21.711,71 20.044,71 C 16.052,58.347 6.392,26.163 24.044,21 z"/>
<path d="M 325.044,46 C 326.591,49.142 325.683,51.579 324.044,54 C 318.757,54.62 314.926,53.785 315.044,49 C 318.172,47.794 320.004,45.293 325.044,46 z"/>
<path d="M 315.044,162 C 328.373,163.578 340.903,157.97 350.044,166 C 351.431,175.388 348.086,180.042 344.044,184 C 347.026,186.351 354.975,183.735 356.044,188 C 356.256,193.213 347.751,189.707 346.044,193 C 343.101,216.347 385.7,196.747 394.043,192 C 387.399,206.176 346.934,221.089 339.044,198 C 339.017,194.64 340.421,192.71 342.044,191 C 341.716,187.994 336.551,189.826 336.044,187 C 337.614,179.903 345.701,179.324 346.044,171 C 345.854,170.19 345.04,170.003 345.044,169 C 338.712,165.689 323.628,164.403 318.044,169 C 322.197,182.779 324.631,196.858 331.044,208 C 333.451,212.184 338.081,214.708 338.044,220 C 324.787,216.257 325.328,198.716 318.044,189 C 311.17,187.207 305.402,184.308 296.044,185 C 295.385,197.325 306.459,197.918 309.044,207 C 301.804,206.128 294.421,197.039 289.044,191 C 285.564,188.813 280.331,188.379 281.044,182 C 285.409,181.302 285.49,184.887 289.044,185 C 290.653,181.306 290.653,171.694 289.044,168 C 287.632,164.745 279.923,167.787 279.044,164 C 285.307,159.634 298.269,160.676 304.044,163 C 303.37,168.856 297.036,163.15 294.044,167 C 294.412,170.965 293.127,176.583 295.044,179 C 299.344,183.033 309.683,181.027 316.044,183 C 310.1,163.67 303.193,127.569 274.044,135 C 269.04,136.275 268.205,140.184 264.044,144 C 265.284,162.81 262.421,186.175 270.044,201 C 272.446,205.673 277.496,206.568 278.044,212 C 264.422,218.867 259.982,189.334 258.044,172 C 255.173,146.334 262.012,127.6 283.044,130 C 300.954,132.044 307.455,146.771 315.044,162 z" id="path260" style="fill-rule: evenodd;"/><path clip-rule="evenodd" d="M 113.044,133 C 121.63,138.08 127.301,146.076 131.044,156 C 135.993,155.282 141.004,154.627 147.044,155 C 147.919,164.738 157.482,186.424 149.044,199 C 144.371,186.673 150.858,163.186 136.044,161 C 133.285,162.574 130.167,163.79 127.044,165 C 129.175,180.202 135.33,191.38 139.044,205 C 129.067,204.976 132.066,191.978 127.044,187 C 121.265,187.445 116.797,186.58 112.044,186 C 107.756,186.78 112.949,190.837 110.044,193 C 105.218,192.492 104.058,188.319 101.044,186 C 104.397,178.431 96.342,172.762 100.044,165 C 94.443,163.936 87.653,164.189 79.044,164 C 81.21,178.171 92.165,188.875 91.044,203 C 85.14,198.57 85.097,188.28 80.044,183 C 78.711,183 77.377,183 76.044,183 C 72.925,183.547 74.51,188.8 73.044,191 C 68.488,192.747 61.939,195.667 56.044,193 C 54.639,190.071 53.355,187.022 54.044,182 C 57.447,175.189 73.039,179.429 79.044,178 C 78.472,172.238 75.981,168.396 74.044,164 C 62.112,164.401 47.892,162.515 40.044,167 C 39.566,180.439 47.972,194.667 44.044,205 C 40.596,202.115 40.335,196.043 39.044,191 C 35.313,188.064 29.835,186.876 23.044,187 C 18.67,187.754 24.203,192.614 21.044,195 C 15.558,193.819 14.393,188.318 9.044,187 C 14.294,179.466 10.404,166.582 7.044,159 C 18.609,157.066 30.833,156.669 38.044,162 C 53.311,156.311 75.696,160.993 95.044,159 C 105.311,157.942 116.208,154.987 125.044,160 C 127.553,149.051 114.474,145.315 111.044,137 C 110.315,134.271 113.031,134.987 113.044,133 z M 16.044,163 C 13.015,169.385 16.685,177.675 19.044,182 C 27.033,180.678 29.532,184.845 36.044,185 C 35.819,180.993 35.135,169.412 33.044,164 C 26.795,164.639 21.603,159.821 16.044,163 z M 105.044,164 C 102.43,175.253 113.195,186.251 126.044,182 C 123.823,170.603 119.661,157.354 105.044,164 z M 58.044,184 C 58.373,186.338 59.246,188.131 60.044,190 C 62.947,188.903 67.141,189.097 70.044,188 C 70.836,184.542 68.932,183.778 68.044,182 C 63.805,181.762 60.963,182.919 58.044,184 z" id="path262" style="fill-rule: evenodd;"/><path clip-rule="evenodd" d="M 327.044,156 C 321.59,155.787 318.468,153.243 317.044,149 C 322.266,146.51 327.455,149.836 327.044,156 z" id="path264" style="fill-rule: evenodd;"/><path clip-rule="evenodd" d="M 230.044,157 C 219.519,168.411 234.211,188.569 231.044,202 C 223.659,198.385 227.393,183.651 222.044,178 C 219.696,178.318 218.29,179.58 215.044,179 C 213.7,182.656 212.834,186.79 210.044,189 C 205.685,189.026 200.781,189.596 199.044,187 C 196.712,172.335 212.309,175.599 221.044,172 C 221.548,166.829 218.212,165.498 219.044,160 C 205.049,156.437 197.108,159.856 182.044,160 C 180.612,166.901 177.672,172.295 174.044,177 C 174.664,180.38 180.741,178.303 182.044,181 C 177.808,185.098 169.218,184.841 170.044,194 C 170.397,195.313 171.804,195.572 172.044,197 C 176.904,195.86 181.551,194.507 188.044,195 C 180.092,208.951 150.856,197.381 169.044,185 C 169.023,182.021 164.326,183.718 163.044,182 C 166.487,174.777 175.547,173.171 176.044,163 C 173.337,154.661 160.018,163.071 153.044,159 C 153.044,158 153.044,157 153.044,156 C 176.376,154.694 208.252,153.439 230.044,157 z" />
</svg>