<?xml version="1.0" encoding="UTF-8" standalone="no"?>
<!-- Created with Inkscape (http://www.inkscape.org/) -->

<svg
   xmlns:dc="http://purl.org/dc/elements/1.1/"
   xmlns:cc="http://creativecommons.org/ns#"
   xmlns:rdf="http://www.w3.org/1999/02/22-rdf-syntax-ns#"
   xmlns:svg="http://www.w3.org/2000/svg"
   xmlns="http://www.w3.org/2000/svg"
   xmlns:sodipodi="http://sodipodi.sourceforge.net/DTD/sodipodi-0.dtd"
   xmlns:inkscape="http://www.inkscape.org/namespaces/inkscape"
   id="svg2985"
   version="1.1"
   inkscape:version="0.48.1 "
   width="298"
   height="114"
   sodipodi:docname="Ratan Tata.jpg">
  <metadata
     id="metadata2991">
    <rdf:RDF>
      <cc:Work
         rdf:about="">
        <dc:format>image/svg+xml</dc:format>
        <dc:type
           rdf:resource="http://purl.org/dc/dcmitype/StillImage" />
        <dc:title></dc:title>
      </cc:Work>
    </rdf:RDF>
  </metadata>
  <defs
     id="defs2989" />
  <sodipodi:namedview
     pagecolor="#ffffff"
     bordercolor="#666666"
     borderopacity="1"
     objecttolerance="10"
     gridtolerance="10"
     guidetolerance="10"
     inkscape:pageopacity="0"
     inkscape:pageshadow="2"
     inkscape:window-width="1366"
     inkscape:window-height="706"
     id="namedview2987"
     showgrid="false"
     inkscape:zoom="1.6107383"
     inkscape:cx="149"
     inkscape:cy="57"
     inkscape:window-x="0"
     inkscape:window-y="0"
     inkscape:window-maximized="1"
     inkscape:current-layer="svg2985" />
  <path
     style="fill:#000000"
     d="m 156.66667,108.33333 c -0.36667,-0.36666 -0.66848,-3.17916 -0.67069,-6.25 C 155.99377,99.0125 155.27297,92.225 154.39421,87 153.51545,81.775 152.72976,72.937254 152.64823,67.360564 L 152.5,57.221128 l -4.2201,2.466934 c -5.13325,3.000735 -7.44828,2.202568 -4.10511,-1.415347 1.27887,-1.383961 7.85944,-7.239755 14.62351,-13.012875 6.76406,-5.77312 12.09266,-10.702212 11.84134,-10.953536 -0.92917,-0.929164 -24.2404,1.889813 -27.05197,3.271336 -3.33595,1.639185 -4.50137,1.094537 -2.94347,-1.375604 1.31548,-2.085794 5.31357,-2.790659 21.1058,-3.720962 12.0167,-0.70789 12.25,-0.681532 12.25,1.384024 0,1.374161 -1.99753,3.671462 -5.75,6.612922 -3.52278,2.761412 -7.20253,6.90438 -9.5,10.695895 -3.61925,5.972853 -3.75,6.512149 -3.75,15.467307 0,10.533221 2.55125,28.520443 4.61808,32.559118 1.70072,3.32329 1.77856,7.00302 0.18192,8.59966 -1.35945,1.35945 -2.16936,1.49731 -3.13333,0.53333 z M 5.1766758,83.565501 C 5.5048887,82.109312 18.549814,68.332257 21.335295,66.5 22.17143,65.95 27.048771,62.575 32.17383,59 37.298889,55.425 44.657946,50.846894 48.52729,48.826432 57.948607,43.906885 80.010083,34.888198 81.050304,35.531089 c 1.841398,1.138047 -2.895993,6.805504 -8.421059,10.074319 -5.457647,3.228928 -17.378602,7.318939 -26.102078,8.955473 -3.544478,0.664948 -3.694496,0.85024 -3.091985,3.818987 0.348279,1.716073 1.122543,6.382632 1.720588,10.370132 0.967148,6.448523 1.328176,7.25 3.265791,7.25 2.687329,0 4.600261,-1.779558 3.893305,-3.621855 C 51.97879,71.502346 52.485489,71 53.704953,71 c 1.055411,0 2.936918,-1.376903 4.181126,-3.059784 2.724484,-3.685061 7.792365,-6.931353 10.828737,-6.936478 4.18132,-0.0071 5.716019,6.391399 2.279053,9.50181 -1.103372,0.998538 -1.82701,1.994644 -1.608085,2.213569 0.689575,0.689575 7.472601,-2.50932 10.958214,-5.167926 C 82.183629,66.148036 84.208806,65 84.844391,65 c 2.183121,0 1.152469,2.626205 -1.923001,4.899998 -1.693236,1.251863 -2.844834,2.509892 -2.559107,2.795619 C 81.393841,73.727174 91,70.61743 91,69.251933 c 0,-0.753482 0.445697,-1.094511 0.990438,-0.757842 0.544741,0.336668 3.111946,-1.007767 5.704899,-2.987634 5.716903,-4.365179 9.632183,-4.497703 10.112803,-0.342297 0.22773,1.96892 -0.22895,2.834626 -1.75,3.317387 C 103.74525,69.215629 103.26124,71 105.375,71 c 3.34736,0 7.63706,-1.362577 9.36874,-2.975884 3.00793,-2.802318 6.05066,-4.165803 6.75459,-3.02682 0.34084,0.551487 0.34159,1.452704 0.002,2.002704 -0.89928,1.45506 0.69551,1.166697 2.94113,-0.531803 C 127.45883,64.185723 130,64.600257 130,67.375 130,72.085159 128.74876,76 127.24333,76 c -1.17186,0 -1.39143,-0.859195 -0.98807,-3.866404 l 0.51859,-3.866405 -4.34199,2.426786 c -3.33145,1.86198 -6.31239,2.536552 -12.80813,2.898413 -4.75317,0.264786 -8.7204,0.0602 -9.04591,-0.46648 -0.34035,-0.550699 -1.921522,-0.598798 -3.828802,-0.11647 C 91.798432,74.26138 81.638492,76 79.273138,76 c -1.158559,0 -2.292207,-0.557208 -2.519218,-1.23824 -0.328106,-0.984319 -0.97004,-0.984319 -3.130386,0 -3.254104,1.48267 -7.273648,1.613384 -8.107821,0.263664 -0.378678,-0.612714 -1.978625,-0.480267 -4.309017,0.35671 C 53.400375,78.185829 50.253756,79 47.224315,79 44.372152,79 44.038919,78.663106 43.515065,75.25 42.750928,70.271356 39.987049,56.653716 39.677974,56.344641 39.075375,55.742042 24.863489,66.368897 23.02944,68.793486 c -1.12602,1.488583 -5.080788,5.740121 -8.788374,9.447862 -6.4560742,6.456344 -9.756517,8.394926 -9.0643902,5.324153 z M 65.153336,70.320027 C 68.170319,68.67798 69.965532,67.059541 69.788665,66.14114 69.629899,65.316737 69.1625,64.722725 68.75,64.821113 68.3375,64.919501 67.153396,65 66.118657,65 c -1.034738,0 -3.284738,1.435427 -5,3.189838 -5.366674,5.489164 -3.727222,6.354745 4.034679,2.130189 z M 101.18237,67.5 c 1.63409,-1.375 2.59905,-2.497765 2.14436,-2.495033 -1.13231,0.0068 -7.041048,4.914099 -5.971086,4.95907 C 97.826248,69.983817 99.548275,68.875 101.18237,67.5 z M 59,48.78903 C 66.162233,46.54733 75,42.157192 75,40.841071 75,40.378482 74.616473,40 74.147718,40 72.996023,40 52.847431,48.468262 49.317287,50.435995 L 46.5,52.006375 l 3,-0.591458 C 51.15,51.089615 55.425,49.907966 59,48.78903 z M 253,73.7 c 0,-0.715 0.5625,-1.90623 1.25,-2.647179 1.02867,-1.108641 0.89587,-1.205586 -0.75,-0.54751 -1.1,0.439817 -4.475,1.439331 -7.5,2.221143 -6.97506,1.802704 -10.52937,0.692802 -11.46808,-3.581136 l -0.65334,-2.974616 -5.54083,2.914649 c -6.17057,3.245904 -12.33263,3.830674 -14.37931,1.364575 -0.70754,-0.852541 -2.41088,-1.415041 -3.78519,-1.25 -3.96095,0.475669 -3.68731,-1.963728 0.49772,-4.437021 L 214.5,62.5 211.0265,62.169972 c -7.36172,-0.699459 -11.44903,0.665922 -16.06108,5.365264 -6.74254,6.87015 -12.44496,5.816818 -11.77995,-2.175955 0.36119,-4.341098 1.8684,-5.094038 10.52848,-5.259601 4.83277,-0.09239 5.395,-0.366129 7.69056,-3.744336 l 2.4766,-3.644656 -2.45516,-3.218888 c -1.35034,-1.770388 -3.65909,-6.092793 -5.13055,-9.605344 -3.66424,-8.746937 -3.93792,-22.250099 -0.5783,-28.532126 4.25074,-7.9483081 7.57702,-9.2980527 11.76844,-4.7754316 C 210.23002,9.5402442 213,20.249169 213,27.898184 c 0,6.44258 -1.74312,14.606865 -4.12321,19.311978 -2.56506,5.070784 -2.42498,5.638524 1.87321,7.591636 4.27509,1.942618 10.25,6.208919 10.25,7.318873 0,0.409504 -0.9,1.030203 -2,1.379329 -1.31479,0.417297 -2,1.513034 -2,3.19823 0,2.400731 0.23649,2.525078 3.72546,1.958896 C 225.95075,67.809178 237,62.18846 237,60.378321 c 0,-0.822995 -0.45403,-1.215751 -1.00895,-0.87279 -1.49845,0.926091 -5.16119,-0.49511 -4.71624,-1.829973 0.22821,-0.684626 1.93067,-1.02155 4.18183,-0.827601 3.37292,0.290594 4.32788,-0.195863 8.55185,-4.356317 5.29631,-5.216669 7.47132,-4.664903 4.10459,1.041272 L 246.06745,57 l 8.71628,0.01531 c 13.40208,0.02354 13.11305,1.622017 -0.40112,2.218394 -11.66537,0.51479 -11.79857,0.548218 -14.57778,3.658691 -7.83947,8.773899 2.31679,10.568282 17.41565,3.076953 8.57775,-4.255865 10.53788,-4.020206 6.73834,0.810125 -1.87868,2.388357 -1.90722,2.669897 -0.35853,3.536587 2.5943,1.451844 19.57698,0.240852 23.40532,-1.668974 C 291.08308,66.612978 295,66.50031 295,68.417136 c 0,2.462795 -19.51471,6.005375 -29.53789,5.362126 -4.13992,-0.265684 -7.76406,-0.09971 -8.05364,0.368838 C 256.57319,75.499607 253,75.136409 253,73.7 z m -60.76578,-7.670687 c 2.8095,-2.555636 2.98635,-2.972874 1.26578,-2.986345 -4.33769,-0.03396 -6.5,1.154865 -6.5,3.573663 0,3.150101 1.28393,3.006034 5.23422,-0.587318 z M 212.5,58.391985 c -1.1,-0.849424 -3.19319,-2.173754 -4.65153,-2.942955 -2.46084,-1.297969 -2.76648,-1.223102 -4.25,1.041028 C 202.71931,57.831824 202,59.170466 202,59.464817 c 0,0.294351 2.8125,0.520871 6.25,0.50338 5.83483,-0.02969 6.11714,-0.134395 4.25,-1.576212 z M 207.9492,44.75 c 5.00545,-11.85938 3.1304,-34.220601 -3.1992,-38.1526442 -2.24031,-1.3917115 -4.44042,-0.088278 -7.58975,4.4964732 -2.15235,3.133363 -2.30794,4.207094 -1.94254,13.406171 0.35425,8.918407 0.75516,10.703035 3.70666,16.5 3.57861,7.028647 4.90703,9 6.06475,9 0.40933,0 1.74136,-2.3625 2.96008,-5.25 z m -45.83444,27.320927 c -1.81395,-1.121083 -0.97251,-5.48231 1.13524,-5.884035 1.35339,-0.257949 1.75,0.349602 1.75,2.680767 0,3.352752 -0.94528,4.402228 -2.88524,3.203268 z M 78,60.040142 c 0,-2.535758 5.693021,-4.306636 12.421831,-3.863948 7.297602,0.480108 7.127315,2.667082 -0.194564,2.498762 -4.070466,-0.09357 -6.687431,0.396535 -8.51649,1.594981 C 78.366339,62.461297 78,62.438611 78,60.040142 z"
     id="path2995"
     inkscape:connector-curvature="0" />
</svg>
