<?xml version="1.0" encoding="utf-8"?>
<!DOCTYPE svg PUBLIC "-//W3C//DTD SVG 1.1//EN" "http://www.w3.org/Graphics/SVG/1.1/DTD/svg11.dtd">
<svg version="1.1" id="Layer_1" xmlns="http://www.w3.org/2000/svg" xmlns:xlink="http://www.w3.org/1999/xlink" x="0px" y="0px" width="201.509px" height="80.152px" viewBox="0 0 201.509 80.152" enable-background="new 0 0 201.509 80.152" xml:space="preserve">
<path fill-rule="evenodd" clip-rule="evenodd" d="M77.911,80.152c4.953-6.578,7.979-13.144,11.344-19.526c1.201-2.278,2.98-4.126-0.1-6.789c-2.006-1.733-0.319-4.299,1.377-6.111c1.164-1.242,2.569-2.1,4.102-2.786c2.215-0.991,1.406-2.658,0.939-4.244c-0.604-2.055-1.951-1.262-3.18-0.804c-1.559,0.581-3.057,1.418-4.664,1.763c-4.039,0.868-5.982,2.934-6.35,7.339c-0.387,4.616-6.566,7.278-10.819,5.31c-2.165-1.002-2.579-2.428-1.343-4.392c1.646-2.614,4.074-4.33,6.682-5.874c1.071-0.635,2.744-0.901,2.617-2.632c-0.131-1.778-1.69-2.422-3.049-2.977c-5.149-2.104-10.611-2.693-16.097-3.185c-1.936-0.173-3.966,0.364-5.843-0.595c0.398-1.666,1.736-1.41,2.828-1.454c6.374-0.255,12.628,0.258,18.607,2.774c1.723,0.725,3.607,1.437,4.525,2.956c1.66,2.747,3.587,2.226,5.969,1.364c5.174-1.87,10.36-3.674,14.988-6.748c0.691-0.459,1.426-0.89,2.197-1.182c1.657-0.629,4.176-2.121,4.904-0.274c0.919,2.33-2.295,1.904-3.635,2.77c-1.25,0.806-2.736,1.274-3.904,2.173c-2.857,2.196-2.724,3.979,0.342,5.92c0.561,0.355,1.315,0.526,1.389,1.256c0.113,1.13-0.972,1.274-1.657,1.45c-2.935,0.749-5.787,1.656-8.019,3.808c-0.939,0.905-2.07,2.104-0.746,3.396c0.996,0.971,2.154,0.246,3.148-0.454c1.494-1.051,2.506-2.701,4.27-3.409c1.379-0.554,3.071-1.579,4.126-0.146c1.183,1.609-0.683,2.635-1.667,3.638c-0.564,0.574-1.349,1.058-2.121,1.281c-3.541,1.022-5.16,3.817-6.869,6.761c-3.248,5.595-5.596,11.738-9.938,16.676C81.345,78.251,80.575,79.564,77.911,80.152z M73.665,53.113c1.857-0.109,3.859-0.512,5.18-2.168c1.201-1.507,1.674-3.655,0.51-5.096c-1.18-1.459-2.664,0.189-3.85,0.904c-1.273,0.768-2.479,1.672-3.615,2.634c-0.754,0.64-1.408,1.515-0.987,2.601C71.355,53.156,72.526,52.924,73.665,53.113z"/>
<path fill-rule="evenodd" clip-rule="evenodd" d="M6.64,63.884c-1.531,0-2.199,0.036-2.861-0.008c-1.516-0.101-3.215-0.23-3.682-1.938c-0.435-1.593,0.668-2.854,1.862-3.809c5.331-4.262,11.501-6.55,18.185-7.566c6.889-1.049,13.912-1.263,20.635-3.352c0.719-0.224,1.766-0.578,2.079,0.502c0.29,1-0.69,1.452-1.417,1.761c-5.405,2.295-8.604,6.558-10.697,11.832c-0.242,0.607-0.515,1.338-1.32,0.748c-0.327-0.238-0.615-0.92-0.516-1.29c0.693-2.581,1.797-4.973,3.531-7.052c0.51-0.612,1.355-1.3,0.949-2.15c-0.421-0.885-1.439-0.548-2.22-0.428c-3.776,0.582-7.548,1.19-11.318,1.813c-0.989,0.164-1.708,0.164-1.208,1.799c1.115,3.648,0.188,5.528-3.201,7.045C12.396,63.154,9.198,64.13,6.64,63.884z M4.75,61.96c2.923-0.657,5.97-0.698,8.762-1.87c1.864-0.782,4.355-1.449,1.317-3.92c1.007-2.245-0.527-1.717-1.676-1.498c-3.52,0.668-6.387,2.716-9.355,4.528c-0.686,0.419-1.461,0.975-1.137,1.961C3.004,62.201,3.978,61.895,4.75,61.96z"/>
<path fill-rule="evenodd" clip-rule="evenodd" d="M192.413,6.031c0.594-2.266,2.484-3.467,4.057-4.922c1.043-0.963,2.25-1.514,3.619-0.75c1.357,0.756,1.488,2.097,1.397,3.48c-0.232,3.522-1.146,6.896-2.417,10.158c-5.537,14.215-13.697,26.941-22.475,39.31c-0.961,1.354-2.01,2.646-3.018,3.968l0.134,0.131c-0.835-2.153,0.851-3.372,1.809-4.855c7.499-11.604,14.53-23.467,19.96-36.209c1.635-3.837,2.752-7.836,3.438-11.953c0.109-0.661,0.256-1.39-0.316-1.863c-0.807-0.668-1.535-0.145-2.203,0.364c-1.322,1.006-2.635,2.021-3.951,3.034L192.413,6.031z"/>
<path fill-rule="evenodd" clip-rule="evenodd" d="M170.755,41.32c-0.496,0.559-0.584,0.756-0.705,0.779c-4.658,0.905-7.816-0.096-8.583-2.707c-0.731-2.485,1.05-5.162,4.886-7.236c0.864-0.468,1.801-0.826,2.738-1.132c1.813-0.59,2.836-1.225,2.959-3.684c0.177-3.544,4.527-5.808,7.316-4.416c0.591,0.295,1.295,0.731,1.207,1.441c-0.104,0.841-0.885,0.608-1.53,0.629c-4.827,0.157-5.159,0.376-4.511,4.895c0.249,1.739-0.578,2-1.686,2.388c-2.494,0.876-5.13,1.411-7.273,3.111c-1.051,0.834-2.299,1.708-2.145,3.141c0.18,1.675,1.858,1.614,3.102,1.914C167.81,40.751,169.106,40.982,170.755,41.32z"/>
<path fill-rule="evenodd" clip-rule="evenodd" d="M133.76,44.192c-0.159-0.175-0.481-0.369-0.53-0.617c-0.092-0.471-0.038-0.973-0.025-1.461c0.037-1.562,2.192-3.425,0.475-4.473c-1.553-0.948-3.344,0.861-4.817,1.873c-1.488,1.022-2.847,2.233-4.273,3.348c-0.691,0.539-1.478,0.838-2.263,0.271c-1.019-0.736-0.244-1.468,0.16-2.114c1.226-1.958,2.46-3.915,3.774-5.814c0.942-1.362,2.058-3.523,2.712,0.211c0.158,0.9,0.981,0.673,1.609,0.496c0.951-0.267,1.875-0.765,2.834-0.833c1.527-0.109,3.369-1.684,4.533,0.144c0.928,1.458-0.838,2.653-1.367,3.979c-0.549,1.371-1.086,2.748-1.673,4.103C134.717,43.746,134.441,44.196,133.76,44.192z"/>
<path fill-rule="evenodd" clip-rule="evenodd" d="M66.903,46.462c-0.74,1.565-2.152,2.762-3.825,3.493c-3.026,1.324-6.149,2.429-9.227,3.638c-0.89,0.35-2.186,0.388-2.284,1.579c-0.127,1.538,1.474,1.485,2.379,2.058c0.135,0.085,0.33,0.072,0.471,0.15c1.232,0.678,4.002,0.244,3.619,1.639c-0.559,2.036-2.707,0.134-4.162,0.115c-1.121-0.016-2.242-0.442-3.191-1.213c-1.145-0.928-2.85-1.56-2.908-3.178c-0.073-1.997,2.104-1.734,3.279-2.414c1.421-0.819,3.043-1.288,4.572-1.921c2.553-1.056,5.419-1.472,7.049-4.227c0.713-1.205,2.303-1.172,3.633-1.039C66.808,45.192,67.028,45.732,66.903,46.462z"/>
<path fill-rule="evenodd" clip-rule="evenodd" d="M139.348,26.533c1.761-0.768,3.72-0.539,5.594-0.716c8.37-0.791,16.962,0.084,24.981-3.347c0.473-0.202,1.017-0.08,1.172,0.445c0.164,0.555-0.295,0.92-0.758,1.091c-1.709,0.632-3.391,1.45-5.16,1.778c-8.015,1.489-16.131,1.893-24.268,1.923C140.303,27.71,139.536,27.764,139.348,26.533z"/>
<path fill-rule="evenodd" clip-rule="evenodd" d="M143.661,44.044c-0.255-0.149-0.686-0.259-0.756-0.482c-0.072-0.229,0.128-0.733,0.344-0.837c3.242-1.551,5.556-4.149,7.814-6.818c0.326-0.385,0.742-0.78,1.249-0.527c0.513,0.257,0.436,0.831,0.308,1.316C152.007,39.014,145.765,44.14,143.661,44.044z"/>
<path fill-rule="evenodd" clip-rule="evenodd" d="M192.446,5.924c-0.073,0.081-0.215,0.229-0.21,0.233c0.233,0.237,0.296,0.19,0.177-0.126L192.446,5.924z"/>
<path fill-rule="evenodd" clip-rule="evenodd" fill="none" d="M73.665,53.113c-1.139-0.189-2.31,0.043-2.763-1.125c-0.421-1.086,0.233-1.961,0.987-2.601c1.136-0.962,2.342-1.866,3.615-2.634c1.186-0.715,2.67-2.363,3.85-0.904c1.164,1.44,0.691,3.589-0.51,5.096C77.524,52.602,75.522,53.004,73.665,53.113z"/>
<path fill-rule="evenodd" clip-rule="evenodd" fill="none" d="M4.75,61.96c-0.772-0.065-1.746,0.241-2.089-0.799c-0.324-0.986,0.451-1.542,1.137-1.961c2.969-1.813,5.836-3.86,9.355-4.528c1.148-0.219,2.683-0.747,1.676,1.498c3.038,2.471,0.547,3.138-1.317,3.92C10.72,61.262,7.673,61.303,4.75,61.96z"/>
</svg>
