<?xml version="1.0" encoding="UTF-8" standalone="no"?>
<!-- Created with Inkscape (http://www.inkscape.org/) -->
<svg
   xmlns:dc="http://purl.org/dc/elements/1.1/"
   xmlns:cc="http://creativecommons.org/ns#"
   xmlns:rdf="http://www.w3.org/1999/02/22-rdf-syntax-ns#"
   xmlns:svg="http://www.w3.org/2000/svg"
   xmlns="http://www.w3.org/2000/svg"
   xmlns:sodipodi="http://sodipodi.sourceforge.net/DTD/sodipodi-0.dtd"
   xmlns:inkscape="http://www.inkscape.org/namespaces/inkscape"
   id="svg2"
   sodipodi:version="0.32"
   inkscape:version="0.46"
   width="623.18799"
   height="612.86249"
   version="1.0"
   sodipodi:docname="Michael Jackson signature.svg"
   inkscape:output_extension="org.inkscape.output.svg.inkscape">
  <metadata
     id="metadata7">
    <rdf:RDF>
      <cc:Work
         rdf:about="">
        <dc:format>image/svg+xml</dc:format>
        <dc:type
           rdf:resource="http://purl.org/dc/dcmitype/StillImage" />
      </cc:Work>
    </rdf:RDF>
  </metadata>
  <defs
     id="defs5">
    <inkscape:perspective
       sodipodi:type="inkscape:persp3d"
       inkscape:vp_x="0 : 526.18109 : 1"
       inkscape:vp_y="0 : 1000 : 0"
       inkscape:vp_z="744.09448 : 526.18109 : 1"
       inkscape:persp3d-origin="372.04724 : 350.78739 : 1"
       id="perspective9" />
  </defs>
  <sodipodi:namedview
     inkscape:window-height="750"
     inkscape:window-width="1280"
     inkscape:pageshadow="2"
     inkscape:pageopacity="0.0"
     guidetolerance="10.0"
     gridtolerance="10.0"
     objecttolerance="10.0"
     borderopacity="1.0"
     bordercolor="#666666"
     pagecolor="#ffffff"
     id="base"
     showgrid="false"
     inkscape:zoom="0.69977474"
     inkscape:cx="113.81885"
     inkscape:cy="345.70778"
     inkscape:window-x="-8"
     inkscape:window-y="-8"
     inkscape:current-layer="svg2" />
  <path
     style="opacity:1;fill:#000000;fill-opacity:1;fill-rule:evenodd;stroke:none;stroke-width:3.14129663;stroke-linecap:round;stroke-linejoin:miter;marker:none;stroke-miterlimit:4;stroke-dasharray:none;stroke-dashoffset:0;stroke-opacity:1;visibility:visible;display:inline;overflow:visible;enable-background:accumulate"
     d="M 120.25,5.6875 C 119.91382,5.7079621 119.60102,5.796804 119.4375,5.90625 C 118.78341,6.344034 118.87453,6.523166 118.78125,6.71875 C 118.59469,7.109918 118.45276,7.5229174 118.28125,8.09375 C 117.93823,9.2354153 117.50526,10.933815 116.96875,13.1875 C 115.89573,17.69487 114.43559,24.359762 112.71875,32.5 C 109.28507,48.780477 104.80117,71.036376 100.28125,93.96875 C 91.241402,139.8335 82.051139,188.25281 80.6875,197.34375 C 78.083195,214.70579 50.540039,354.81106 45.28125,375.875 C 45.278711,375.88517 45.252528,375.92739 45.25,375.9375 C 42.626696,384.40264 39.724562,387.92564 37.8125,388.59375 C 36.853614,388.9288 36.000857,388.82466 34.90625,388.15625 C 33.811643,387.48784 32.591165,386.21598 31.40625,384.53125 C 26.666591,377.79232 22.743051,364.47522 22.15625,358 L 22,356.375 L 20.40625,356.59375 C 18.650309,356.82279 17.747436,358.17597 16.90625,359.75 C 16.065064,361.32403 15.33318,363.37847 14.59375,365.8125 C 13.114889,370.68055 11.743125,377.05175 10.53125,383.625 C 8.1074999,396.7715 6.3078584,410.76176 5.75,414.21875 C 5.6158687,414.79074 5.8121429,415.38977 6.2587572,415.77148 C 6.7053714,416.15318 7.327661,416.25376 7.8717777,416.03217 C 8.4158944,415.81058 8.790873,415.30387 8.84375,414.71875 C 9.4426444,411.00747 11.222898,397.24783 13.625,384.21875 C 14.826051,377.70421 16.181033,371.36907 17.59375,366.71875 C 18.263034,364.51563 18.922536,362.78333 19.5625,361.53125 C 20.813051,369.0275 24.1734,379.70336 28.84375,386.34375 C 30.181782,388.24619 31.620617,389.79845 33.28125,390.8125 C 34.941883,391.82655 36.943328,392.22654 38.84375,391.5625 C 42.644595,390.23441 45.545174,385.64665 48.28125,376.78125 L 48.28125,376.75 L 48.28125,376.71875 C 53.687814,355.09247 81.094904,215.89855 83.8125,197.78125 C 84.142647,195.58027 86.089969,185.30502 87.3125,178.625 C 87.218836,179.581 86.974851,181.03403 86.90625,181.90625 C 83.751998,222.01031 98.297888,337.257 114.5,379.5625 C 130.37019,421.00135 137.87719,473.86375 161.65625,512 C 173.479,530.96101 182.10532,539.95084 188.9375,542.84375 C 192.35359,544.2902 195.52491,544.08097 197.875,542.5 C 200.22509,540.91903 201.67518,538.24317 202.625,535.15625 C 204.4693,529.16228 204.13304,525.51608 203,523.25 C 202.43348,522.11696 201.6671,521.37465 201.03125,520.9375 C 200.3954,520.50035 199.75,520.3125 199.75,520.3125 C 199.19031,520.11635 198.56787,520.25214 198.14073,520.66357 C 197.71359,521.075 197.55459,521.69193 197.72965,522.25856 C 197.90471,522.8252 198.38398,523.24494 198.96875,523.34375 C 198.96875,523.34375 198.99866,523.3272 199.25,523.5 C 199.50134,523.6728 199.86683,523.98365 200.1875,524.625 C 200.82885,525.90769 201.32948,528.67919 199.625,534.21875 C 198.80044,536.89858 197.58707,538.89143 196.125,539.875 C 194.66293,540.85857 192.89506,541.12843 190.15625,539.96875 C 184.67863,537.64939 176.00036,529.08843 164.3125,510.34375 C 141.07034,473.06858 133.50625,420.3948 117.4375,378.4375 C 101.70066,337.34686 86.97515,221.01238 90.03125,182.15625 C 91.563337,162.67685 99.863866,119.90755 107.625,81.65625 C 111.50557,62.530602 115.24601,44.49907 117.9375,31 C 119.28325,24.250465 120.38566,18.638392 121.09375,14.5625 C 121.4478,12.524554 121.68944,10.86149 121.84375,9.625 C 121.9209,9.0067551 121.9786,8.4950905 122,8.0625 C 122.0214,7.6299095 122.1203,7.3921391 121.90625,6.75 C 121.84161,6.5560939 121.7557,6.2229158 121.21875,5.875 C 120.95028,5.7010421 120.58618,5.6670379 120.25,5.6875 z"
     id="path2384" />
  <path
     style="opacity:1;fill:#000000;fill-opacity:1;fill-rule:evenodd;stroke:none;stroke-width:3.14129663;stroke-linecap:round;stroke-linejoin:miter;marker:none;stroke-miterlimit:4;stroke-dasharray:none;stroke-dashoffset:0;stroke-opacity:1;visibility:visible;display:inline;overflow:visible;enable-background:accumulate"
     d="M 342.46875,61.125 C 341.29031,61.097818 340.01361,61.269669 338.6875,61.625 C 323.51135,65.691436 312.53788,82.140376 304.375,105.5625 C 296.21212,128.98462 290.834,159.63557 287.375,192.9375 C 286.2404,203.86099 285.40394,215.11105 284.65625,226.4375 C 270.1525,241.01807 256.96661,259.35783 247.25,276.1875 C 226.9156,312.11508 215.86129,355.99829 213.1875,401.375 C 212.54175,403.42823 211.9167,405.01585 211.34375,405.78125 C 210.59105,406.78677 210.23471,406.80084 209.71875,406.75 C 209.20279,406.69916 208.33025,406.28784 207.375,405.5625 C 206.41975,404.83716 205.39133,403.87034 204.3125,403.03125 C 203.78335,402.61969 203.11785,402.34 202.4375,402.3125 C 201.75715,402.285 201.17062,402.50072 200.6875,402.75 C 199.72127,403.24855 199.00142,403.89966 198.03125,404.5625 C 196.09092,405.88817 193.37222,407.36584 187.90625,407.15625 C 185.426,407.06115 183.77708,406.11152 182.375,404.59375 C 180.97292,403.07598 179.88115,400.93954 178.96875,398.65625 C 178.05635,396.37296 177.30908,393.95449 176.40625,391.90625 C 175.50342,389.85801 174.43652,387.93828 172.34375,387.25 C 171.39205,386.937 170.65886,387.43484 170.25,387.78125 C 169.84114,388.12766 169.54535,388.49976 169.21875,388.96875 C 168.56556,389.90673 167.88225,391.18426 167.125,392.71875 C 165.6105,395.78772 163.85795,399.93924 162.125,404.28125 C 159.58662,410.64132 157.96826,415.27505 156.46875,419.5 C 156.3842,416.56808 156.29898,413.48932 156.46875,408.375 C 156.64612,403.03178 157.14555,395.8633 157.6875,388.46875 C 160.93393,378.13805 164.6521,362.76277 169.40625,337.59375 C 176.94646,297.675 181.25967,275.85698 183.15625,264.03125 C 184.10454,258.11838 184.49829,254.76632 184.28125,252.5625 C 184.17273,251.46059 183.90079,250.47621 183.0625,249.78125 C 182.22421,249.08629 181.18945,249.09961 180.4375,249.25 C 179.50372,249.43676 179.0226,249.99762 178.59375,250.5625 C 178.1649,251.12738 177.79253,251.80052 177.40625,252.625 C 176.63368,254.27396 175.81963,256.51725 174.96875,259.3125 C 173.26699,264.90299 171.38398,272.71593 169.4375,282.03125 C 165.54453,300.6619 161.4229,325.30768 158.3125,349.96875 C 156.47629,364.52725 155.34385,376.86555 154.53125,387.84375 C 152.70865,393.61629 151.05989,398.11562 149.65625,400.5625 C 147.72851,403.92303 146.4255,404.59024 145.25,404.8125 C 144.0745,405.03476 142.54201,404.52448 140.46875,404.96875 C 138.71578,405.34438 135.95722,404.14428 133.71875,402.15625 C 135.51957,400.68982 136.03108,398.33194 136,396.15625 C 135.96811,393.92413 135.41474,391.76998 134.1875,390.21875 C 133.57388,389.44313 132.6483,388.71505 131.46875,388.71875 C 130.2892,388.72245 129.28239,389.44173 128.5,390.4375 C 126.99389,392.35436 126.58044,394.68738 126.96875,396.84375 C 127.1164,397.6637 127.4497,398.44498 127.78125,399.21875 C 127.46011,399.07046 127.30132,399.11415 126.9375,398.90625 C 123.85418,397.14435 121.79529,395.88545 120.3125,395 C 118.82971,394.11455 118.06951,393.53528 116.84375,393.40625 C 116.23087,393.34174 115.40781,393.62579 114.96875,394.0625 C 114.52969,394.49921 114.35981,394.88854 114.1875,395.28125 C 113.84288,396.06667 113.54965,396.94613 112.84375,398.15625 C 111.54403,400.38434 109.4974,401.5408 107.0625,401.875 C 104.6276,402.2092 101.83978,401.63311 99.46875,400.25 C 98.70032,399.80175 97.758272,398.45588 97.03125,396.5 C 96.304228,394.54412 95.746218,392.09439 95.28125,389.6875 C 94.816282,387.28061 94.44471,384.91944 94.03125,383.0625 C 93.82452,382.13403 93.603806,381.32323 93.3125,380.625 C 93.166847,380.27589 93.012932,379.95615 92.75,379.625 C 92.487068,379.29385 92.06976,378.9077 91.4375,378.78125 L 91.34375,378.75 L 91.25,378.75 C 90.585234,378.70051 89.973162,379.0475 89.625,379.375 C 89.276838,379.7025 89.056351,380.01729 88.875,380.375 C 88.512298,381.09042 88.259973,381.93151 88,382.9375 C 87.480055,384.94949 87.000779,387.64009 86.46875,390.625 C 85.404691,396.59482 84.098367,403.79605 82.125,408.5625 C 81.88816,409.08639 81.95646,409.69782 82.303064,410.15654 C 82.649669,410.61526 83.219191,410.84796 83.787852,410.76323 C 84.356514,410.67849 84.833446,410.28984 85.03125,409.75 C 87.237059,404.42211 88.498768,397.12424 89.5625,391.15625 C 90.076321,388.2735 90.549643,385.76334 91,383.96875 C 91.364324,385.64687 91.725697,387.89074 92.1875,390.28125 C 92.665176,392.75392 93.254322,395.33547 94.09375,397.59375 C 94.933178,399.85203 95.981853,401.86441 97.875,402.96875 C 100.82714,404.69084 104.24779,405.44209 107.46875,405 C 110.68971,404.55791 113.75705,402.84507 115.5625,399.75 C 116.35882,398.38488 116.71272,397.35492 116.96875,396.75 C 117.15597,396.84904 117.53352,396.99839 118.6875,397.6875 C 120.12968,398.54871 122.27922,399.86938 125.40625,401.65625 C 127.09608,402.62187 128.58186,403.13995 129.96875,403.25 C 130.10069,403.26047 130.21377,403.21676 130.34375,403.21875 C 133.20998,406.46881 137.23729,408.86432 141.125,408.03125 C 142.15692,407.81012 143.72,408.3078 145.84375,407.90625 C 147.9675,407.5047 150.19948,405.91747 152.375,402.125 C 152.85369,401.29053 153.37514,399.82992 153.875,398.75 C 153.71219,401.79518 153.39765,405.71612 153.3125,408.28125 C 153.0897,414.99311 153.11164,419.98506 153.3125,423.0625 C 153.41293,424.60122 153.50355,425.54014 153.84375,426.4375 C 153.9288,426.66184 153.98994,426.91185 154.34375,427.25 C 154.69756,427.58815 155.71908,427.81295 156.28125,427.53125 C 156.84342,427.24955 156.96687,426.94757 157.09375,426.71875 C 157.22063,426.48993 157.30041,426.28628 157.375,426.0625 C 158.23834,423.47249 161.59682,414.04269 165.03125,405.4375 C 166.74847,401.13491 168.49467,397.01747 169.9375,394.09375 C 170.65891,392.63189 171.33202,391.47121 171.8125,390.78125 C 171.84709,390.73157 171.84209,390.73191 171.875,390.6875 C 172.38221,391.12069 172.93956,391.84513 173.53125,393.1875 C 174.32018,394.97732 175.09035,397.37969 176.0625,399.8125 C 177.03465,402.24531 178.2217,404.72606 180.0625,406.71875 C 181.9033,408.71144 184.49472,410.15523 187.78125,410.28125 C 193.88423,410.51526 197.53457,408.69123 199.78125,407.15625 C 200.90459,406.38876 201.73139,405.73434 202.125,405.53125 C 202.3218,405.4297 202.35737,405.43931 202.3125,405.4375 C 202.26763,405.43569 202.25171,405.41105 202.40625,405.53125 C 203.32361,406.24475 204.33561,407.20208 205.46875,408.0625 C 206.60189,408.92292 207.85226,409.72187 209.40625,409.875 C 210.5814,409.9908 211.78855,409.43451 212.84375,408.53125 C 212.07281,428.28265 212.69369,448.22575 215.09375,467.90625 C 218.44299,495.59336 225.47493,512.60665 233.125,522.78125 C 240.77507,532.95585 249.06422,536.28125 254.8125,536.28125 C 259.8553,536.28125 264.72289,532.49646 269.5625,525.875 C 274.40211,519.25354 279.29222,509.57613 284.125,496.9375 C 286.17695,491.57127 288.20261,485.39085 290.21875,478.96875 C 292.24775,510.79378 293.0058,538.55993 290.0625,558.875 C 288.19717,571.74981 286.10437,583.34031 283.3125,591.5625 C 281.91656,595.67359 280.34172,598.9142 278.65625,601.03125 C 276.97078,603.1483 275.32346,604.09375 273.4375,604.09375 C 272.56289,604.09375 272.08782,603.84594 271.5625,603.25 C 271.03718,602.65406 270.56399,601.62307 270.21875,600.21875 C 269.52828,597.41011 269.39692,593.24196 269.5625,588.75 C 269.72808,584.25804 270.16701,579.42411 270.40625,575.0625 C 270.64549,570.70089 270.73145,566.86838 270.09375,564.0625 C 269.99158,563.49434 269.586,563.028 269.0375,562.84801 C 268.489,562.66802 267.88597,562.8034 267.46703,563.20056 C 267.04809,563.59773 266.88076,564.19268 267.03125,564.75 C 267.50254,566.82368 267.48523,570.61773 267.25,574.90625 C 267.01477,579.19477 266.60713,584.05448 266.4375,588.65625 C 266.26787,593.25802 266.31998,597.56704 267.15625,600.96875 C 267.57439,602.6696 268.19219,604.17917 269.21875,605.34375 C 270.24531,606.50833 271.7564,607.25 273.4375,607.25 C 276.43615,607.25 279.06886,605.58262 281.125,603 C 283.18114,600.41738 284.81899,596.86891 286.28125,592.5625 C 289.20576,583.94968 291.31265,572.25297 293.1875,559.3125 C 296.44876,536.80279 295.21916,505.68958 292.78125,470.40625 C 298.17082,451.83444 303.2814,429.32633 307.9375,403.40625 C 313.86864,401.77648 320.00129,399.84725 326.28125,397.1875 C 345.35662,389.10852 364.30726,375.91496 371.625,355.5625 C 385.96109,315.69027 383.8096,266.89059 374.3125,241.46875 C 374.30224,241.43587 374.29152,241.40783 374.28125,241.375 C 367.44593,219.52568 358.02835,207.10237 346.96875,201.90625 C 344.38047,200.6902 341.71261,199.90879 339,199.46875 C 344.02744,149.10334 348.88005,114.06804 350.5625,92.46875 C 351.48493,80.626525 351.54661,72.597851 349.90625,67.4375 C 349.08607,64.857325 347.71737,62.915253 345.71875,61.90625 C 344.71944,61.401749 343.64719,61.152182 342.46875,61.125 z M 342.34375,64.25 C 343.1351,64.264603 343.78168,64.419517 344.3125,64.6875 C 345.37413,65.223465 346.23942,66.308512 346.90625,68.40625 C 348.2399,72.601726 348.35092,80.49217 347.4375,92.21875 C 345.77136,113.60869 340.90878,148.7167 335.875,199.15625 C 327.90556,198.67693 319.58672,201.11486 311.34375,205.59375 C 303.44651,209.88478 295.58596,216.12061 288,223.34375 C 288.70425,213.17282 289.47968,203.10446 290.5,193.28125 C 293.94483,160.11576 299.32056,129.61504 307.34375,106.59375 C 315.36694,83.572458 326.03391,68.264476 339.5,64.65625 C 340.61423,64.357693 341.5524,64.235397 342.34375,64.25 z M 333.96875,202.15625 C 334.50575,202.1577 335.03034,202.25083 335.5625,202.28125 C 335.18319,206.12899 334.81683,209.34211 334.4375,213.375 C 326.01414,303.37199 321.62597,300.66603 307.8125,386.28125 C 306.98205,391.42836 306.05616,395.9474 305.1875,400.84375 C 298.74184,402.51277 292.71602,403.75326 287.875,404.34375 C 287.42987,398.45482 286.94884,392.87313 286.53125,386.875 C 284.75882,345.20691 283.98984,285.11711 287.6875,227.96875 C 295.8807,219.82142 304.43425,212.91313 312.84375,208.34375 C 320.12896,204.38527 327.23378,202.1381 333.96875,202.15625 z M 338.6875,202.59375 C 341.06394,202.99976 343.36839,203.68978 345.625,204.75 C 355.57229,209.42352 364.61854,220.92548 371.3125,242.375 L 371.3125,242.4375 L 371.34375,242.46875 C 380.45063,266.75374 382.69431,315.45667 368.65625,354.5 C 361.7789,373.62763 343.69283,386.39075 325.0625,394.28125 C 319.47658,396.64705 313.93199,398.44283 308.5625,399.96875 C 309.34528,395.51469 310.18601,391.43896 310.9375,386.78125 C 324.73272,301.27916 329.1292,303.79069 337.5625,213.6875 C 337.94167,209.65635 338.30835,206.4392 338.6875,202.59375 z M 284.34375,231.4375 C 280.90038,287.6632 281.66798,346.16626 283.40625,387.03125 L 283.40625,387.0625 L 283.40625,387.09375 C 283.82536,393.11369 284.3047,398.71506 284.75,404.625 C 282.74475,404.78906 280.64007,404.97408 279.25,404.9375 C 271.14282,404.72415 268.21543,402.37767 265.6875,399.59375 C 263.15957,396.80983 261.0079,393.09021 255.65625,391.65625 C 254.23927,391.27657 252.7921,391.53551 251.6875,392.25 C 250.5829,392.96449 249.782,394.02868 249.125,395.21875 C 247.811,397.5989 246.97205,400.65445 246.0625,403.625 C 245.15295,406.59555 244.17406,409.48146 243.03125,411.21875 C 242.45984,412.0874 241.8676,412.63611 241.3125,412.90625 C 240.7574,413.17639 240.19796,413.24304 239.28125,412.96875 C 229.43002,410.02119 224.4552,404.48344 221.5,400.59375 C 220.7612,399.62133 220.13335,398.7558 219.59375,398.03125 C 219.05415,397.3067 218.66734,396.711 217.9375,396.21875 C 217.64319,396.02025 217.15656,395.89667 216.65625,395.875 C 219.88775,352.93015 230.77393,311.66412 249.96875,277.75 C 258.97111,262.15746 271.1213,245.30128 284.34375,231.4375 z M 181.09375,252.46875 C 181.11708,252.53503 181.11379,252.44386 181.15625,252.875 C 181.29963,254.33085 180.9995,257.68881 180.0625,263.53125 C 178.18851,275.21614 173.85457,297.07138 166.3125,337 C 163.72987,350.67275 161.52528,360.861 159.4375,369.65625 C 160.07362,363.32623 160.53746,357.47974 161.4375,350.34375 C 164.53745,325.7656 168.63003,301.17681 172.5,282.65625 C 174.43498,273.39597 176.31581,265.64886 177.96875,260.21875 C 178.79522,257.50369 179.59128,255.37472 180.25,253.96875 C 180.57936,253.26576 180.88276,252.74666 181.09375,252.46875 z M 131.46875,391.875 C 131.39299,391.87524 131.49722,391.83674 131.75,392.15625 C 132.25556,392.79527 132.85144,394.56941 132.875,396.21875 C 132.89856,397.86809 132.36191,399.26913 131.6875,399.78125 C 131.6807,399.78642 131.6631,399.77617 131.65625,399.78125 C 130.88031,398.63024 130.26656,397.44568 130.0625,396.3125 C 129.79928,394.85079 130.03508,393.56331 130.96875,392.375 C 131.40625,391.81818 131.54451,391.87476 131.46875,391.875 z M 254.84375,394.71875 C 259.12103,395.86484 260.54723,398.57338 263.375,401.6875 C 266.20277,404.80162 270.40677,407.83225 279.15625,408.0625 C 280.68244,408.10266 282.88374,407.91276 284.96875,407.75 C 286.6383,429.69524 288.24286,450.60196 289.59375,470.1875 C 286.83169,479.65518 284.01487,488.4184 281.1875,495.8125 C 276.41641,508.2898 271.60177,517.77795 267.03125,524.03125 C 262.46073,530.28455 258.22087,533.125 254.8125,533.125 C 250.28464,533.125 242.81706,530.44045 235.625,520.875 C 228.43294,511.30955 221.52344,494.85012 218.21875,467.53125 C 215.56281,445.75257 215.07322,423.62737 216.34375,401.84375 C 216.50996,401.27763 216.68321,400.86091 216.84375,400.21875 C 216.91518,399.93305 216.92961,399.99657 217,399.78125 C 217.05216,399.84793 217.03961,399.83355 217.09375,399.90625 C 217.58653,400.56794 218.21818,401.47095 219,402.5 C 222.12729,406.6162 227.7842,412.82181 238.40625,416 C 239.9337,416.45702 241.43613,416.32773 242.6875,415.71875 C 243.93887,415.10977 244.88875,414.10425 245.65625,412.9375 C 247.19126,410.60399 248.14381,407.53165 249.0625,404.53125 C 249.98119,401.53085 250.84943,398.57644 251.875,396.71875 C 252.38778,395.78991 252.92681,395.19616 253.375,394.90625 C 253.82319,394.61634 254.15483,394.53415 254.84375,394.71875 z M 304.5625,404.28125 C 300.67442,425.72169 296.50057,444.65333 292.09375,460.96875 C 290.84181,443.93407 289.54875,426.14446 288.125,407.5 C 292.80278,406.94783 298.50464,405.79615 304.5625,404.28125 z"
     id="path2386" />
  <path
     style="opacity:1;fill:#000000;fill-opacity:1;fill-rule:evenodd;stroke:none;stroke-width:3.14129663;stroke-linecap:round;stroke-linejoin:miter;marker:none;stroke-miterlimit:4;stroke-dasharray:none;stroke-dashoffset:0;stroke-opacity:1;visibility:visible;display:inline;overflow:visible;enable-background:accumulate"
     d="M 516.71875,130.3125 C 516.71666,130.3119 515.94242,130.26846 515.6875,130.375 C 515.17766,130.58808 515.08665,130.81634 515,130.9375 C 514.8267,131.17982 514.81935,131.24813 514.78125,131.34375 C 514.70506,131.53499 514.6559,131.68873 514.59375,131.90625 C 514.08095,133.70104 512.95989,139.07533 511.40625,146.65625 C 509.85261,154.23717 507.90227,163.88429 505.90625,173.78125 C 501.9142,193.57517 497.6713,214.40654 495.9375,221.125 C 492.37903,234.91407 464.87278,343.61713 456.03125,374.5625 C 451.60016,390.07128 448.04235,401.46621 444.53125,408.8125 C 442.7757,412.48565 441.04253,415.13126 439.3125,416.78125 C 437.58247,418.43124 435.94877,419.125 434.03125,419.125 C 432.47523,419.125 430.54001,417.82609 428.5625,415.40625 C 426.58499,412.98641 424.65923,409.61514 422.90625,406.21875 C 421.15327,402.82236 419.57808,399.38371 418.21875,396.75 C 417.53908,395.43315 416.90039,394.34117 416.28125,393.46875 C 415.97168,393.03254 415.66433,392.64608 415.28125,392.3125 C 414.89817,391.97892 414.39872,391.625 413.625,391.625 C 411.72846,391.625 410.18249,392.46863 409.15625,393.5625 C 408.13001,394.65637 407.47288,395.93488 406.8125,397.0625 C 406.15212,398.19012 405.50753,399.17708 404.6875,399.84375 C 403.86747,400.51042 402.87828,400.9375 401.1875,400.9375 C 399.6537,400.9375 398.16015,400.19544 396.625,398.84375 C 395.08985,397.49206 393.5934,395.55695 392.1875,393.59375 C 390.7816,391.63055 389.47626,389.63482 388.15625,388.03125 C 386.83624,386.42768 385.52013,384.96874 383.46875,384.96875 C 381.62025,384.96875 380.23318,386.1197 379.09375,387.375 C 377.95432,388.6303 376.96559,390.1529 376.03125,391.5 C 375.09691,392.8471 374.20136,394.00899 373.59375,394.5 C 373.28994,394.74551 373.08684,394.81308 373.09375,394.8125 C 373.10066,394.81192 373.16502,394.8672 372.96875,394.6875 C 368.06493,390.19783 366.93138,384.18707 366.71875,379.0625 C 366.61244,376.50022 366.74885,374.21853 366.75,372.4375 C 366.75058,371.54698 366.74734,370.80938 366.5625,370.0625 C 366.47008,369.68906 366.34048,369.28173 366,368.875 C 365.65952,368.46827 365.00953,368.11409 364.4375,368.09375 L 364.40625,368.09375 L 364.375,368.09375 C 363.42952,368.09375 362.51646,368.71365 362.0625,369.375 C 361.60854,370.03635 361.40019,370.74829 361.21875,371.5 C 360.85588,373.00342 360.67255,374.77524 360.3125,376.625 C 359.70937,379.72363 358.64729,382.66211 356.0625,384.5 C 355.692,383.27077 355.22414,382.03255 354.5625,380.90625 C 354.02493,379.99115 353.39069,379.16697 352.625,378.5 C 351.85931,377.83303 350.8876,377.3125 349.75,377.3125 C 348.73895,377.3125 348.22071,377.69923 347.53125,378.125 C 346.84179,378.55077 346.09842,379.10897 345.28125,379.75 C 343.64691,381.03207 341.73923,382.64843 339.84375,384.1875 C 337.94827,385.72657 336.04879,387.18796 334.5625,388.03125 C 333.81935,388.45289 333.16176,388.70074 332.78125,388.78125 C 332.73955,388.79007 332.78205,388.7757 332.75,388.78125 C 332.73904,388.50167 332.74667,388.13093 332.8125,387.625 C 332.96547,386.44946 333.35396,384.88412 333.78125,383.34375 C 334.63582,380.26301 335.6875,377.3125 335.6875,377.3125 C 335.95107,376.77204 335.88299,376.12854 335.51215,375.65521 C 335.14131,375.18187 334.5328,374.96177 333.94497,375.08836 C 333.35714,375.21494 332.89315,375.66599 332.75,376.25 C 332.75,376.25 331.64696,379.26644 330.75,382.5 C 330.30152,384.11678 329.90705,385.77169 329.71875,387.21875 C 329.6246,387.94228 329.56489,388.60049 329.625,389.25 C 329.68511,389.89951 329.78583,390.68552 330.5625,391.3125 C 331.42339,392.00746 332.53297,392.03514 333.4375,391.84375 C 334.34203,391.65236 335.2216,391.26257 336.125,390.75 C 337.9318,389.72486 339.87117,388.20129 341.8125,386.625 C 343.75383,385.04871 345.67566,383.42923 347.21875,382.21875 C 347.99029,381.61351 348.67867,381.09548 349.1875,380.78125 C 349.69633,380.46702 350.10358,380.4375 349.75,380.4375 C 349.88508,380.4375 350.16303,380.52703 350.5625,380.875 C 350.96197,381.22297 351.42805,381.79236 351.84375,382.5 C 352.67515,383.91529 353.31889,385.83402 353.5,387.1875 L 353.78125,389.1875 L 355.65625,388.4375 C 360.90949,386.29472 362.62429,381.23613 363.40625,377.21875 C 363.49647,376.75525 363.51978,376.50154 363.59375,376.0625 C 363.57584,377.14906 363.54066,377.93927 363.59375,379.21875 C 363.82188,384.71685 365.11948,391.73056 370.875,397 C 371.54823,397.61637 372.48823,398.01218 373.375,397.9375 C 374.26177,397.86282 374.9703,397.44731 375.5625,396.96875 C 376.74691,396.01163 377.66797,394.66106 378.625,393.28125 C 379.58203,391.90144 380.53989,390.4889 381.4375,389.5 C 382.33511,388.5111 383.0882,388.09375 383.46875,388.09375 C 383.63534,388.09375 384.60522,388.64055 385.75,390.03125 C 386.89478,391.42195 388.20312,393.40834 389.65625,395.4375 C 391.10938,397.46666 392.69696,399.54491 394.5625,401.1875 C 396.42804,402.83009 398.63154,404.0625 401.1875,404.0625 C 403.48909,404.0625 405.32783,403.36124 406.65625,402.28125 C 407.98467,401.20126 408.82774,399.82626 409.53125,398.625 C 410.23476,397.42374 410.82508,396.37153 411.4375,395.71875 C 411.97517,395.14565 412.48362,394.87876 413.3125,394.8125 C 413.41026,394.91252 413.53966,395.0289 413.71875,395.28125 C 414.16702,395.9129 414.75513,396.9572 415.40625,398.21875 C 416.7085,400.74185 418.29795,404.1769 420.09375,407.65625 C 421.88955,411.1356 423.88834,414.63803 426.125,417.375 C 428.36166,420.11197 430.92951,422.25 434.03125,422.25 C 436.77149,422.25 439.30345,421.12762 441.46875,419.0625 C 443.63405,416.99738 445.52633,414.02424 447.375,410.15625 C 451.07235,402.42027 454.62165,390.98048 459.0625,375.4375 C 467.96482,344.27937 495.42968,235.62014 498.96875,221.90625 C 500.59742,215.59519 504.3423,197.06827 507.9375,179.28125 C 506.46667,190.57519 505.09229,202.18169 504.3125,212.96875 C 501.62932,250.08602 507.00865,322.24432 519.4375,374.03125 C 527.46584,407.48275 543.37523,447.86978 558.75,468.21875 C 565.29254,476.87801 572.78487,486.38307 582.28125,491.4375 C 591.77763,496.49193 603.38181,496.74833 616.8125,487.1875 C 617.29766,486.87466 617.57214,486.32092 617.52732,485.74538 C 617.4825,485.16985 617.1256,484.66528 616.59786,484.43132 C 616.07011,484.19737 615.45657,484.27174 615,484.625 C 602.2585,493.69522 592.42625,493.25754 583.78125,488.65625 C 575.13625,484.05496 567.75607,474.92349 561.25,466.3125 C 546.46021,446.73779 530.44109,406.40047 522.5,373.3125 C 510.17833,321.97215 504.82877,249.70724 507.46875,213.1875 C 508.79373,194.85855 511.78126,173.15478 514.21875,156.8125 C 515.43749,148.64136 516.52043,141.81861 517.1875,137.40625 C 517.52103,135.20007 517.74596,133.60801 517.84375,132.6875 C 517.8682,132.45737 517.86776,132.27559 517.875,132.09375 C 517.87862,132.00283 517.8842,131.91423 517.875,131.78125 C 517.8658,131.64827 518.08907,131.56446 517.5,130.84375 C 517.35273,130.66357 516.72084,130.3131 516.71875,130.3125 z"
     id="path2388" />
</svg>
